<svg width="41" height="40" viewBox="0 0 41 40" fill="none" xmlns="http://www.w3.org/2000/svg">
<rect opacity="0.2" x="0.654297" width="39.8159" height="40" rx="19.908" fill="#086CD9"/>
<path d="M14.584 14.4997C13.5757 14.4997 12.7507 15.3247 12.7507 16.333C12.7507 17.3413 13.5757 18.1663 14.584 18.1663C15.5923 18.1663 16.4173 17.3505 16.4173 16.333C16.4173 15.3155 15.6015 14.4997 14.584 14.4997ZM21.0007 12.6663C20.6381 12.6663 20.2836 12.7739 19.9821 12.9753C19.6806 13.1768 19.4456 13.4631 19.3069 13.7981C19.1681 14.1331 19.1318 14.5017 19.2025 14.8573C19.2733 15.213 19.4479 15.5396 19.7043 15.796C19.9607 16.0524 20.2874 16.227 20.643 16.2978C20.9986 16.3685 21.3672 16.3322 21.7022 16.1935C22.0372 16.0547 22.3236 15.8197 22.525 15.5182C22.7265 15.2167 22.834 14.8623 22.834 14.4997C22.834 13.4822 22.0182 12.6663 21.0007 12.6663ZM27.4173 10.833C26.409 10.833 25.584 11.658 25.584 12.6663C25.584 13.6747 26.409 14.4997 27.4173 14.4997C28.4257 14.4997 29.2507 13.6838 29.2507 12.6663C29.2507 11.6488 28.4348 10.833 27.4173 10.833ZM13.209 19.083C12.4482 19.083 11.834 19.6972 11.834 20.458V24.583H12.7507V29.1663H16.4173V24.583H17.334V20.458C17.334 19.6972 16.7198 19.083 15.959 19.083H13.209ZM19.6257 17.2497C18.8648 17.2497 18.2507 17.8638 18.2507 18.6247V22.7497H19.1673V27.333H22.834V22.7497H23.7507V18.6247C23.7507 17.8638 23.1365 17.2497 22.3757 17.2497H19.6257ZM26.0423 15.4163C25.2815 15.4163 24.6673 16.0305 24.6673 16.7913V20.9163H25.584V25.4997H29.2507V20.9163H30.1673V16.7913C30.1673 16.0305 29.5532 15.4163 28.7923 15.4163H26.0423Z" fill="#086CD9"/>
</svg>
