<svg width="24" height="23" viewBox="0 0 24 23" fill="none" xmlns="http://www.w3.org/2000/svg">
<path d="M4.59932 21.892C4.43181 22.0377 4.22622 22.1325 4.00669 22.1654C3.78716 22.1983 3.5628 22.1679 3.35995 22.0777C3.15711 21.9876 2.98419 21.8414 2.8615 21.6564C2.73881 21.4714 2.67145 21.2553 2.66732 21.0333V18.4165C2.04848 18.4165 1.45499 18.1707 1.0174 17.7331C0.579817 17.2955 0.333984 16.702 0.333984 16.0832V7.9165C0.333984 7.29767 0.579817 6.70417 1.0174 6.26659C1.45499 5.829 2.04848 5.58317 2.66732 5.58317H15.5007C16.1195 5.58317 16.713 5.829 17.1506 6.26659C17.5882 6.70417 17.834 7.29767 17.834 7.9165V16.0832C17.834 16.702 17.5882 17.2955 17.1506 17.7331C16.713 18.1707 16.1195 18.4165 15.5007 18.4165H9.67082L4.59932 21.892ZM5.58398 18.2835C5.69029 18.2829 5.79469 18.2552 5.88732 18.203L8.63482 16.292C8.83035 16.156 9.06282 16.0832 9.30098 16.0832H14.334C14.6434 16.0832 14.9401 15.9603 15.1589 15.7415C15.3777 15.5227 15.5007 15.2259 15.5007 14.9165V9.08317C15.5007 8.77375 15.3777 8.47701 15.1589 8.25821C14.9401 8.03942 14.6434 7.9165 14.334 7.9165H3.83398C3.52456 7.9165 3.22782 8.03942 3.00903 8.25821C2.79023 8.47701 2.66732 8.77375 2.66732 9.08317V14.9165C2.66732 15.5465 3.16782 16.0622 3.83398 16.0832C4.31232 16.1018 4.65882 16.18 4.81865 16.3468C4.96798 16.5032 4.97615 16.7668 5.00065 17.2685C5.00415 17.342 5.00415 17.475 5.00065 17.7002C5.00065 17.8549 5.06211 18.0033 5.17151 18.1126C5.2809 18.222 5.42927 18.2835 5.58398 18.2835ZM19.0007 12.6018C18.9969 12.7457 18.9969 12.8896 19.0007 13.0335V12.6018ZM19.0007 12.6018C19.024 12.1002 19.0333 11.8365 19.1826 11.6802C19.3425 11.5133 19.689 11.4352 20.1673 11.4165C20.8335 11.3955 21.334 10.8798 21.334 10.2498V4.4165C21.334 4.10708 21.2111 3.81034 20.9923 3.59155C20.7735 3.37275 20.4767 3.24984 20.1673 3.24984H9.66732C9.3579 3.24984 9.06115 3.37275 8.84236 3.59155C8.62357 3.81034 8.50065 4.10708 8.50065 4.4165H6.16732V3.24984C6.16732 2.631 6.41315 2.03751 6.85073 1.59992C7.28832 1.16234 7.88181 0.916504 8.50065 0.916504L21.334 0.916504C21.9528 0.916504 22.5463 1.16234 22.9839 1.59992C23.4215 2.03751 23.6673 2.631 23.6673 3.24984V11.4165C23.6673 12.0353 23.4215 12.6288 22.9839 13.0664C22.5463 13.504 21.9528 13.7498 21.334 13.7498V16.3667C21.3299 16.5886 21.2625 16.8048 21.1398 16.9898C21.0171 17.1748 20.8442 17.3209 20.6413 17.4111C20.4385 17.5012 20.2141 17.5316 19.9946 17.4987C19.7751 17.4658 19.5695 17.371 19.402 17.2253L19.0007 16.95V12.6018Z" fill="#007E85"/>
</svg>
