<svg width="28" height="28" viewBox="0 0 28 28" fill="none" xmlns="http://www.w3.org/2000/svg">
<path fill-rule="evenodd" clip-rule="evenodd" d="M14 28C21.7322 28 28 21.7322 28 14C28 6.2678 21.7322 0 14 0C6.2678 0 0 6.2678 0 14C0 21.7322 6.2678 28 14 28ZM18.9504 9.0496C19.2133 8.78709 19.5697 8.63976 19.9412 8.64002C20.3127 8.64028 20.6689 8.78812 20.9314 9.051C21.1939 9.31388 21.3412 9.67028 21.341 10.0418C21.3407 10.4133 21.1929 10.7695 20.93 11.032L13.0158 18.9462L13.0102 18.9518C12.8805 19.0823 12.7263 19.1858 12.5564 19.2564C12.3865 19.3271 12.2044 19.3634 12.0204 19.3634C11.8364 19.3634 11.6543 19.3271 11.4844 19.2564C11.3145 19.1858 11.1603 19.0823 11.0306 18.9518L11.025 18.9462L7.07 14.9912C6.93629 14.8621 6.82963 14.7076 6.75626 14.5368C6.68289 14.366 6.64426 14.1823 6.64265 13.9964C6.64103 13.8105 6.67646 13.6261 6.74685 13.4541C6.81724 13.282 6.9212 13.1257 7.05265 12.9942C7.1841 12.8628 7.34041 12.7588 7.51246 12.6884C7.68452 12.6181 7.86887 12.5826 8.05476 12.5842C8.24065 12.5859 8.42436 12.6245 8.59517 12.6979C8.76597 12.7712 8.92045 12.8779 9.0496 13.0116L12.0204 15.981L18.9504 9.051V9.0496Z" fill="#FFDC60"/>
</svg>
