<svg width="194" height="55" viewBox="0 0 194 55" fill="none" xmlns="http://www.w3.org/2000/svg">
<path d="M192.834 4.8862C193.378 4.97802 193.894 4.61097 193.986 4.06637C194.078 3.52177 193.711 3.00586 193.166 2.91404L192.834 4.8862ZM0.798366 52.2815C23.6976 56.9956 40.0511 55.1585 53.5014 49.9925C66.9053 44.8443 77.3638 36.4039 88.4175 28.1247C99.4977 19.8258 111.246 11.6256 127.377 6.68423C143.503 1.74448 164.088 0.0397102 192.834 4.8862L193.166 2.91404C164.183 -1.97245 143.275 -0.27747 126.791 4.77194C110.313 9.81974 98.3345 18.1982 87.2186 26.5239C76.0762 34.8695 65.8688 43.0999 52.7843 48.1254C39.7463 53.1331 23.7889 54.9725 1.20163 50.3226L0.798366 52.2815Z" fill="#007E85"/>
</svg>
