<svg width="24" height="25" viewBox="0 0 24 25" fill="none" xmlns="http://www.w3.org/2000/svg">
<rect opacity="0.01" width="24" height="24.2682" fill="black"/>
<path d="M9 3.0332H5C3.89543 3.0332 3 3.93864 3 5.05555V9.10024C3 10.2172 3.89543 11.1226 5 11.1226H9C10.1046 11.1226 11 10.2172 11 9.10024V5.05555C11 3.93864 10.1046 3.0332 9 3.0332Z" fill="white"/>
<path d="M19 3.0332H15C13.8954 3.0332 13 3.93864 13 5.05555V9.10024C13 10.2172 13.8954 11.1226 15 11.1226H19C20.1046 11.1226 21 10.2172 21 9.10024V5.05555C21 3.93864 20.1046 3.0332 19 3.0332Z" fill="white"/>
<path d="M9 13.1455H5C3.89543 13.1455 3 14.0509 3 15.1679V19.2125C3 20.3295 3.89543 21.2349 5 21.2349H9C10.1046 21.2349 11 20.3295 11 19.2125V15.1679C11 14.0509 10.1046 13.1455 9 13.1455Z" fill="white"/>
<path d="M19 13.1455H15C13.8954 13.1455 13 14.0509 13 15.1679V19.2125C13 20.3295 13.8954 21.2349 15 21.2349H19C20.1046 21.2349 21 20.3295 21 19.2125V15.1679C21 14.0509 20.1046 13.1455 19 13.1455Z" fill="white"/>
</svg>
