<svg width="41" height="40" viewBox="0 0 41 40" fill="none" xmlns="http://www.w3.org/2000/svg">
<rect opacity="0.2" x="0.847656" width="39.8159" height="40" rx="19.908" fill="#CB3CFF"/>
<path d="M17.9199 19.4797C18.4297 19.4797 18.897 19.2429 19.275 18.8792C18.8785 18.1682 18.6522 17.3638 18.6522 16.5919C18.6522 15.9374 18.8101 15.3199 19.088 14.7747C18.7433 14.5633 18.3404 14.4395 17.9082 14.4395C16.645 14.4395 15.6211 15.4782 15.6211 16.7594C15.6211 18.0408 16.6567 19.4797 17.9199 19.4797Z" fill="#CB3CFF"/>
<path d="M19.4591 20.5797C19.2359 20.5315 19.0048 20.5049 18.7673 20.5049H17.0664C15.2565 20.5049 13.7891 21.9769 13.7891 23.7928L13.7967 24.1816C13.7967 24.6889 14.2068 25.1003 14.7125 25.1003H16.3896C16.472 23.08 17.7101 21.3576 19.4591 20.5797Z" fill="#CB3CFF"/>
<path d="M22.6005 19.9646C24.1667 19.9646 25.4221 18.1803 25.4221 16.5916C25.4221 15.0028 24.1523 13.7148 22.586 13.7148C21.0198 13.7148 19.75 15.0028 19.75 16.5916C19.7502 18.1803 21.0343 19.9646 22.6005 19.9646Z" fill="#CB3CFF"/>
<path d="M27.7152 25.3134C27.7152 23.0616 25.8957 21.2363 23.6514 21.2363H21.5423C19.298 21.2363 17.4785 23.0616 17.4785 25.3134L17.4882 25.7955C17.4882 26.4245 17.9965 26.9346 18.6237 26.9346H26.5895C27.2166 26.9346 27.725 26.4245 27.725 25.7955L27.7152 25.3134Z" fill="#CB3CFF"/>
</svg>
