<svg width="41" height="40" viewBox="0 0 41 40" fill="none" xmlns="http://www.w3.org/2000/svg">
<rect opacity="0.2" x="0.839844" width="39.8159" height="40" rx="19.908" fill="#FDB52A"/>
<path fill-rule="evenodd" clip-rule="evenodd" d="M21.0176 11.75C18.9473 11.75 17.0612 12.4338 15.9452 12.9925C15.8443 13.043 15.7502 13.0922 15.6628 13.1401C15.4896 13.2345 15.342 13.3225 15.2247 13.4L16.4943 15.2691L17.0919 15.507C19.4276 16.6853 22.5598 16.6853 24.896 15.507L25.5743 15.155L26.7747 13.4C26.5258 13.2383 26.2672 13.0918 26.0006 12.9614C24.89 12.4086 23.0489 11.75 21.018 11.75M18.0654 13.8657C17.616 13.7811 17.172 13.6697 16.7358 13.532C17.7813 13.0677 19.3391 12.575 21.018 12.575C22.1808 12.575 23.2803 12.8115 24.1897 13.1113C23.1241 13.2611 21.9869 13.5155 20.9034 13.8285C20.0509 14.0751 19.0545 14.0485 18.0654 13.8657ZM25.3804 16.1867L25.2677 16.2435C22.6983 17.5397 19.2901 17.5397 16.7207 16.2435L16.6139 16.1894C12.7533 20.4249 9.80626 28.2486 21.0176 28.2486C32.2288 28.2486 29.2103 20.2796 25.3804 16.1867ZM20.5413 20C20.2982 20 20.0651 20.0966 19.8932 20.2685C19.7213 20.4404 19.6247 20.6736 19.6247 20.9167C19.6247 21.1598 19.7213 21.3929 19.8932 21.5648C20.0651 21.7368 20.2982 21.8333 20.5413 21.8333V20ZM21.458 19.0833V18.625H20.5413V19.0833C20.0551 19.0833 19.5888 19.2765 19.245 19.6203C18.9012 19.9641 18.708 20.4304 18.708 20.9167C18.708 21.4029 18.9012 21.8692 19.245 22.213C19.5888 22.5568 20.0551 22.75 20.5413 22.75V24.5833C20.1426 24.5833 19.803 24.329 19.6765 23.9724C19.6577 23.914 19.6274 23.8601 19.5874 23.8136C19.5474 23.7672 19.4985 23.7292 19.4436 23.702C19.3887 23.6748 19.3289 23.6589 19.2677 23.6552C19.2065 23.6516 19.1453 23.6602 19.0875 23.6806C19.0297 23.701 18.9766 23.7328 18.9313 23.7741C18.886 23.8154 18.8495 23.8654 18.8239 23.921C18.7982 23.9767 18.784 24.0369 18.7821 24.0982C18.7801 24.1594 18.7905 24.2204 18.8125 24.2776C18.9389 24.6352 19.173 24.9447 19.4826 25.1636C19.7923 25.3825 20.1621 25.5001 20.5413 25.5V25.9583H21.458V25.5C21.9442 25.5 22.4106 25.3068 22.7544 24.963C23.0982 24.6192 23.2913 24.1529 23.2913 23.6667C23.2913 23.1804 23.0982 22.7141 22.7544 22.3703C22.4106 22.0265 21.9442 21.8333 21.458 21.8333V20C21.8568 20 22.1964 20.2544 22.3229 20.611C22.3417 20.6693 22.3719 20.7233 22.4119 20.7697C22.4519 20.8161 22.5008 20.8541 22.5557 20.8813C22.6107 20.9085 22.6705 20.9244 22.7316 20.9281C22.7928 20.9318 22.8541 20.9232 22.9119 20.9027C22.9697 20.8823 23.0228 20.8505 23.068 20.8092C23.1133 20.7679 23.1499 20.718 23.1755 20.6623C23.2011 20.6067 23.2154 20.5464 23.2173 20.4852C23.2192 20.4239 23.2089 20.3629 23.1868 20.3057C23.0605 19.9482 22.8264 19.6386 22.5167 19.4197C22.2071 19.2008 21.8372 19.0833 21.458 19.0833ZM21.458 22.75V24.5833C21.7011 24.5833 21.9343 24.4868 22.1062 24.3148C22.2781 24.1429 22.3747 23.9098 22.3747 23.6667C22.3747 23.4236 22.2781 23.1904 22.1062 23.0185C21.9343 22.8466 21.7011 22.75 21.458 22.75Z" fill="#FDB52A"/>
</svg>
