<svg width="48" height="49" viewBox="0 0 48 49" fill="none" xmlns="http://www.w3.org/2000/svg">
<rect y="0.530029" width="48" height="48" rx="10" fill="#007E85"/>
<path d="M21.4508 10.93C20.9232 10.9297 20.4086 11.0931 19.9777 11.3976C19.5469 11.702 19.2211 12.1326 19.0453 12.63H16.3508C15.6745 12.63 15.0259 12.8987 14.5477 13.3769C14.0694 13.8551 13.8008 14.5037 13.8008 15.18V35.58C13.8008 36.2563 14.0694 36.9049 14.5477 37.3831C15.0259 37.8614 15.6745 38.13 16.3508 38.13H19.0453C18.9492 37.8569 18.9004 37.5695 18.9008 37.28V36.43H16.3508C16.1253 36.43 15.9091 36.3405 15.7497 36.1811C15.5903 36.0217 15.5008 35.8055 15.5008 35.58V15.18C15.5008 14.9546 15.5903 14.7384 15.7497 14.579C15.9091 14.4196 16.1253 14.33 16.3508 14.33H19.0453C19.2211 14.8274 19.5469 15.258 19.9777 15.5625C20.4086 15.8669 20.9232 16.0303 21.4508 16.03H26.5508C27.0783 16.0303 27.593 15.8669 28.0238 15.5625C28.4546 15.258 28.7804 14.8274 28.9563 14.33H31.6508C31.8762 14.33 32.0924 14.4196 32.2518 14.579C32.4112 14.7384 32.5008 14.9546 32.5008 15.18V27.4251C33.0162 27.0358 33.5899 26.7306 34.2008 26.5207V15.18C34.2008 14.5037 33.9321 13.8551 33.4539 13.3769C32.9757 12.8987 32.3271 12.63 31.6508 12.63H28.9563C28.7804 12.1326 28.4546 11.702 28.0238 11.3976C27.593 11.0931 27.0783 10.9297 26.5508 10.93H21.4508ZM20.6008 13.48C20.6008 13.2546 20.6903 13.0384 20.8497 12.879C21.0091 12.7196 21.2253 12.63 21.4508 12.63H26.5508C26.7762 12.63 26.9924 12.7196 27.1518 12.879C27.3112 13.0384 27.4008 13.2546 27.4008 13.48C27.4008 13.7055 27.3112 13.9217 27.1518 14.0811C26.9924 14.2405 26.7762 14.33 26.5508 14.33H21.4508C21.2253 14.33 21.0091 14.2405 20.8497 14.0811C20.6903 13.9217 20.6008 13.7055 20.6008 13.48ZM24.0076 37.3684V37.3633L24.0059 37.3548L24.0042 37.3361C24.0005 37.2773 24 37.2182 24.0025 37.1593C24.0047 37.0573 24.0212 36.9298 24.0518 36.7768C24.1147 36.4674 24.249 36.0679 24.5227 35.6038C25.0701 34.679 26.1496 33.5281 28.2525 32.3177C28.8866 31.9522 29.0651 31.5374 29.0855 31.2195C29.1093 30.8642 28.9495 30.4562 28.6061 30.1281C28.4309 29.96 28.2232 29.8295 27.9958 29.7444C27.7684 29.6594 27.526 29.6216 27.2835 29.6334C26.782 29.6589 26.1462 29.9088 25.4917 30.6568C25.4198 30.7458 25.3306 30.8194 25.2296 30.8731C25.1285 30.9268 25.0177 30.9596 24.9037 30.9694C24.7897 30.9793 24.6749 30.966 24.5661 30.9304C24.4574 30.8948 24.357 30.8376 24.2708 30.7623C24.1847 30.6869 24.1147 30.5949 24.065 30.4919C24.0153 30.3888 23.9869 30.2768 23.9815 30.1625C23.9761 30.0482 23.9939 29.934 24.0337 29.8267C24.0735 29.7194 24.1346 29.6213 24.2133 29.5382C25.116 28.5046 26.1581 27.9912 27.1917 27.9351C27.6662 27.9108 28.1406 27.9838 28.5858 28.1496C29.0311 28.3153 29.4377 28.5704 29.7808 28.899C30.4234 29.5144 30.8433 30.3916 30.7838 31.33C30.7192 32.3041 30.1463 33.1881 29.1008 33.7899C27.2172 34.8762 26.3808 35.8214 26.0085 36.4317H29.9525C30.1779 36.4317 30.3941 36.5213 30.5535 36.6807C30.7129 36.8401 30.8025 37.0563 30.8025 37.2817C30.8025 37.5072 30.7129 37.7234 30.5535 37.8828C30.3941 38.0422 30.1779 38.1317 29.9525 38.1317H24.8525C24.6424 38.1316 24.4399 38.0537 24.2839 37.9131C24.1278 37.7724 24.0294 37.5773 24.0076 37.3684ZM33.9815 30.6585C34.6904 29.8714 35.3993 29.63 35.9603 29.63C36.5417 29.63 37.0381 29.8901 37.3288 30.2267C37.6178 30.5633 37.6552 30.8982 37.5379 31.1583C37.407 31.4439 36.9667 31.9165 35.7121 32.2021C35.5243 32.2449 35.3566 32.3502 35.2365 32.5008C35.1164 32.6514 35.051 32.8383 35.051 33.0309C35.051 33.2235 35.1164 33.4104 35.2365 33.5609C35.3566 33.7115 35.5243 33.8168 35.7121 33.8596C36.965 34.1452 37.407 34.6161 37.5379 34.9034C37.6569 35.1652 37.6178 35.5001 37.3288 35.8367C37.0381 36.1733 36.5417 36.4317 35.9603 36.4317C35.3993 36.4317 34.6921 36.1903 33.9832 35.4015C33.8324 35.2338 33.6211 35.1329 33.3959 35.1209C33.1706 35.1089 32.9499 35.187 32.7821 35.3378C32.6144 35.4886 32.5135 35.6999 32.5015 35.9251C32.4896 36.1503 32.5676 36.3711 32.7184 36.5388C33.7095 37.6404 34.8604 38.1334 35.9603 38.1334C37.0381 38.1334 38.0054 37.6574 38.6174 36.9434C39.2311 36.2294 39.5388 35.2009 39.0849 34.2013C38.8628 33.7273 38.5161 33.3224 38.0819 33.03C38.5431 32.707 38.8775 32.3172 39.0849 31.8604C39.5388 30.8625 39.2311 29.8323 38.6174 29.1183C38.2849 28.7422 37.8757 28.4415 37.4174 28.2366C36.9592 28.0316 36.4623 27.9271 35.9603 27.93C34.8621 27.93 33.7095 28.4213 32.7201 29.5212C32.5806 29.6901 32.5117 29.9064 32.5277 30.1248C32.5438 30.3433 32.6435 30.5471 32.8062 30.6938C32.9689 30.8405 33.182 30.9187 33.401 30.9122C33.6199 30.9056 33.8279 30.8147 33.9815 30.6585ZM22.3008 28.9449C22.3008 28.6066 22.1308 28.3533 21.9574 28.202C21.8125 28.0786 21.6379 27.9954 21.4508 27.9606C21.223 27.9181 20.6008 27.9096 20.3135 28.5029C19.9735 29.205 19.3887 30.0856 18.4877 30.5871C18.3901 30.6414 18.3042 30.7143 18.2348 30.8018C18.1655 30.8892 18.114 30.9895 18.0834 31.0968C18.0527 31.2042 18.0436 31.3165 18.0563 31.4274C18.0691 31.5383 18.1036 31.6456 18.1579 31.7431C18.2121 31.8407 18.2851 31.9266 18.3725 31.996C18.46 32.0653 18.5602 32.1168 18.6676 32.1474C18.7749 32.1781 18.8872 32.1872 18.9981 32.1745C19.109 32.1617 19.2163 32.1272 19.3139 32.0729C19.7911 31.8041 20.2249 31.4649 20.6008 31.0665V37.28C20.6008 37.5055 20.6903 37.7217 20.8497 37.8811C21.0091 38.0405 21.2253 38.13 21.4508 38.13C21.6762 38.13 21.8924 38.0405 22.0518 37.8811C22.2112 37.7217 22.3008 37.5055 22.3008 37.28V28.9449Z" fill="white"/>
</svg>
