<svg width="48" height="49" viewBox="0 0 48 49" fill="none" xmlns="http://www.w3.org/2000/svg">
<g clip-path="url(#clip0_709_1964)">
<path d="M37.856 0.265015H10.144C4.54164 0.265015 0 4.80656 0 10.4089V38.121C0 43.7233 4.54164 48.265 10.144 48.265H37.856C43.4584 48.265 48 43.7233 48 38.121V10.4089C48 4.80656 43.4584 0.265015 37.856 0.265015Z" fill="#007E85"/>
<path d="M20.9936 9.26795C19.446 9.30684 17.933 9.73398 16.5936 10.51C12.1486 13.078 10.6236 18.781 13.1886 23.229C15.2586 26.819 19.3686 28.501 23.2136 27.669L24.8336 30.4729C24.9 30.587 25.009 30.6703 25.1365 30.7044C25.2641 30.7385 25.4 30.7207 25.5146 30.6549L25.6786 30.5609L26.6106 32.1759L28.8756 36.104L30.0956 38.219C30.3745 38.6985 30.8317 39.0482 31.3675 39.1919C31.9033 39.3356 32.4742 39.2616 32.9556 38.986C33.4351 38.7063 33.7847 38.2484 33.9282 37.7122C34.0717 37.1759 33.9974 36.6047 33.7216 36.1229L29.3036 28.465L29.4676 28.371C29.5246 28.3382 29.5747 28.2946 29.6149 28.2424C29.655 28.1903 29.6845 28.1307 29.7016 28.0671C29.7187 28.0036 29.7231 27.9373 29.7145 27.8721C29.7059 27.8068 29.6845 27.744 29.6516 27.687L28.0516 24.9159C30.7626 21.9999 31.3936 17.543 29.3016 13.918C28.4637 12.4668 27.2495 11.2687 25.7872 10.4502C24.3249 9.63176 22.6687 9.2233 20.9936 9.26795ZM21.0226 10.262C22.518 10.2218 23.9965 10.5868 25.3013 11.3185C26.6062 12.0501 27.6888 13.1211 28.4346 14.418C28.9809 15.3628 29.3357 16.4059 29.4786 17.4879C29.6216 18.5699 29.5499 19.6695 29.2676 20.7238C28.9854 21.778 28.4982 22.7664 27.8338 23.6322C27.1694 24.4981 26.3409 25.2244 25.3956 25.7699C24.4516 26.3166 23.409 26.6717 22.3276 26.8147C21.2461 26.9577 20.1471 26.8859 19.0934 26.6034C18.0398 26.3209 17.0523 25.8332 16.1874 25.1683C15.3226 24.5035 14.5975 23.6746 14.0536 22.729C13.5073 21.7842 13.1526 20.7409 13.0097 19.6588C12.8668 18.5768 12.9386 17.4773 13.2209 16.423C13.5033 15.3687 13.9906 14.3804 14.6551 13.5145C15.3196 12.6487 16.1482 11.9224 17.0936 11.377C18.2894 10.6827 19.6403 10.2993 21.0226 10.262ZM21.0496 11.34C19.8461 11.3702 18.6695 11.7019 17.6276 12.3049C14.1736 14.3009 12.9876 18.737 14.9816 22.194C15.9413 23.8542 17.521 25.0655 19.3734 25.5617C21.2258 26.0578 23.1995 25.7982 24.8606 24.84C26.5206 23.8784 27.7315 22.2979 28.2279 20.4448C28.7243 18.5918 28.4656 16.6176 27.5086 14.955C26.8571 13.8268 25.9131 12.8953 24.7763 12.259C23.6394 11.6228 22.3519 11.3053 21.0496 11.34ZM21.0796 12.334C22.2023 12.3039 23.3122 12.5781 24.2918 13.1276C25.2713 13.677 26.084 14.4812 26.6436 15.455C27.0538 16.1641 27.3201 16.9472 27.4274 17.7594C27.5346 18.5716 27.4807 19.397 27.2687 20.1884C27.0566 20.9797 26.6906 21.7215 26.1916 22.3712C25.6926 23.021 25.0704 23.5659 24.3606 23.975C23.6521 24.3857 22.8696 24.6524 22.0578 24.76C21.246 24.8676 20.421 24.814 19.63 24.6021C18.8391 24.3901 18.0977 24.0242 17.4484 23.5252C16.7992 23.0261 16.2548 22.4038 15.8466 21.694C15.4363 20.9848 15.1697 20.2017 15.0623 19.3894C14.9549 18.5771 15.0086 17.7516 15.2205 16.9601C15.4323 16.1686 15.7981 15.4266 16.297 14.7766C16.7958 14.1266 17.4179 13.5814 18.1276 13.172C19.0261 12.6504 20.041 12.3623 21.0796 12.334ZM27.3056 25.627L28.5346 27.757L25.4486 29.5389L24.2116 27.3949C24.7967 27.198 25.3608 26.9436 25.8956 26.635C26.4056 26.34 26.8736 25.999 27.3056 25.627ZM28.4386 28.965L32.8566 36.6229C32.9302 36.747 32.9782 36.8846 32.9979 37.0275C33.0176 37.1704 33.0086 37.3157 32.9713 37.4551C32.934 37.5944 32.8693 37.725 32.7809 37.839C32.6925 37.953 32.5823 38.0481 32.4566 38.1189C32.3326 38.1927 32.1952 38.241 32.0523 38.2609C31.9094 38.2807 31.764 38.2717 31.6247 38.2344C31.4853 38.1971 31.3548 38.1324 31.241 38.0438C31.1271 37.9553 31.0321 37.8449 30.9616 37.719L29.7416 35.604L27.4756 31.6759L26.5436 30.0609L28.4386 28.965Z" fill="white"/>
</g>
<defs>
<clipPath id="clip0_709_1964">
<rect y="0.265015" width="48" height="48" rx="10" fill="white"/>
</clipPath>
</defs>
</svg>
