<svg width="48" height="48" viewBox="0 0 48 48" fill="none" xmlns="http://www.w3.org/2000/svg">
<g clip-path="url(#clip0_709_1956)">
<path fill-rule="evenodd" clip-rule="evenodd" d="M37.6 48H10.4C9.03351 48.0028 7.6799 47.7356 6.41688 47.2139C5.15387 46.6922 4.00629 45.9263 3.04002 44.96C2.07375 43.9937 1.30779 42.8462 0.786112 41.5832C0.26443 40.3201 -0.00270996 38.9665 2.07248e-05 37.6V10.4C-0.00270996 9.03351 0.26443 7.6799 0.786112 6.41688C1.30779 5.15387 2.07375 4.00629 3.04002 3.04002C4.00629 2.07375 5.15387 1.30779 6.41688 0.786112C7.6799 0.26443 9.03351 -0.00270996 10.4 2.07248e-05H37.6C38.9665 -0.00270996 40.3201 0.26443 41.5832 0.786112C42.8462 1.30779 43.9937 2.07375 44.96 3.04002C45.9263 4.00629 46.6922 5.15387 47.2139 6.41688C47.7356 7.6799 48.0028 9.03351 48 10.4V37.6C48.0028 38.9665 47.7356 40.3201 47.2139 41.5832C46.6922 42.8462 45.9263 43.9937 44.96 44.96C43.9937 45.9263 42.8462 46.6922 41.5832 47.2139C40.3201 47.7356 38.9665 48.0028 37.6 48Z" fill="#007E85"/>
<path d="M16.9437 10.2537C17.0041 10.7709 17.5125 11.1026 18.2451 11.1026C18.9217 11.1026 19.4 10.7619 19.4 10.2795C19.4 9.87015 19.0896 9.63304 18.3269 9.46507L17.5168 9.28851C16.3836 9.0471 15.8277 8.46546 15.8277 7.52171C15.8277 6.36272 16.7715 5.59554 18.2062 5.59554C19.5766 5.59554 20.5461 6.35843 20.585 7.45686H19.3611C19.3008 6.94866 18.8441 6.61663 18.215 6.61663C17.5642 6.61663 17.1334 6.93148 17.1334 7.41819C17.1334 7.81038 17.4307 8.0389 18.159 8.19827L18.9088 8.35765C20.1584 8.62485 20.6971 9.1635 20.6971 10.1244C20.6971 11.3655 19.7361 12.1323 18.1762 12.1323C16.6939 12.1323 15.733 11.4041 15.6855 10.2537H16.9437ZM25.4478 10.4647H23.2631L22.7848 11.9729H21.4791L23.6381 5.75492H25.1678L27.3267 11.9729H25.9174L25.4478 10.4647ZM23.5432 9.49085H25.1721L24.4006 7.01741H24.3232L23.5432 9.49085ZM29.2248 11.9729V6.82796H27.3592V5.75492H32.392V6.82796H30.5264V11.9729H29.2248Z" fill="white"/>
<path d="M16.0386 18C19.3805 18 21.7546 20.2714 21.7546 23.0786C21.7546 25.0691 20.8385 26.5748 17.5224 29.9562L12.5419 35.0989V35.1499H22.232V36.7066H10.0903V35.4814L16.6708 28.6419C19.3418 25.8857 19.9998 24.7885 19.9998 23.168C19.9998 21.139 18.3869 19.5314 16.0386 19.5314C13.5742 19.5314 11.7291 21.2028 11.7033 23.4614H10C10.0258 20.3095 12.5936 18 16.0386 18ZM24.5163 27.4938C24.5163 21.7133 27.0582 18 31.2647 18C35.4837 18 38 21.7005 38 27.4809C38 33.2995 35.4967 37 31.2647 37C27.0326 37 24.5163 33.3124 24.5163 27.4938ZM36.2324 27.4938C36.2324 22.6576 34.3872 19.5439 31.2647 19.5439C28.1551 19.5439 26.2969 22.6829 26.2969 27.4809C26.2969 32.3681 28.1161 35.469 31.2647 35.469C34.4128 35.469 36.2324 32.3681 36.2324 27.4938Z" fill="white"/>
</g>
<defs>
<clipPath id="clip0_709_1956">
<rect width="48" height="48" rx="10" fill="white"/>
</clipPath>
</defs>
</svg>
