<svg width="48" height="49" viewBox="0 0 48 49" fill="none" xmlns="http://www.w3.org/2000/svg">
<rect y="0.530029" width="48" height="48" rx="10" fill="#007E85"/>
<path d="M16.1071 10.9485C16.2858 10.7353 16.3737 10.4606 16.352 10.1833C16.3303 9.90606 16.2008 9.64835 15.9913 9.46551C15.7817 9.28266 15.5089 9.18927 15.2312 9.20537C14.9536 9.22147 14.6933 9.34578 14.5063 9.55162L12.676 11.6483C11.6381 12.8377 11.0514 14.3541 11.0185 15.9323L10.9377 19.7842C10.9348 19.9237 10.9595 20.0625 11.0102 20.1925C11.0609 20.3225 11.1368 20.4412 11.2334 20.5419C11.33 20.6426 11.4455 20.7233 11.5733 20.7794C11.7011 20.8354 11.8387 20.8658 11.9783 20.8687C12.1178 20.8715 12.2565 20.8469 12.3865 20.7962C12.5166 20.7455 12.6353 20.6696 12.736 20.573C12.8367 20.4764 12.9174 20.3609 12.9734 20.2331C13.0295 20.1052 13.0598 19.9676 13.0627 19.8281L13.1421 15.9776C13.1648 14.8977 13.5665 13.8602 14.2768 13.0465L16.1071 10.9485Z" fill="white"/>
<path fill-rule="evenodd" clip-rule="evenodd" d="M15.8353 18.4384C15.9304 16.9227 16.5996 15.5003 17.7066 14.4607C18.8136 13.4211 20.2751 12.8424 21.7938 12.8425H22.5829V11.78C22.5829 11.4043 22.7321 11.044 22.9978 10.7783C23.2635 10.5126 23.6238 10.3634 23.9995 10.3634C24.3752 10.3634 24.7356 10.5126 25.0013 10.7783C25.2669 11.044 25.4162 11.4043 25.4162 11.78V12.8425H26.2053C27.7239 12.8424 29.1855 13.4211 30.2925 14.4607C31.3995 15.5003 32.0686 16.9227 32.1638 18.4384L32.4769 23.4449C32.5962 25.3538 33.2371 27.1933 34.3299 28.763C34.5556 29.0875 34.6936 29.465 34.7303 29.8586C34.767 30.2522 34.7012 30.6486 34.5394 31.0093C34.3775 31.3699 34.1251 31.6825 33.8066 31.9168C33.4881 32.151 33.1145 32.2988 32.7219 32.3458L27.8954 32.9238V34.4467C27.8954 35.4799 27.4849 36.4709 26.7543 37.2015C26.0237 37.9321 25.0328 38.3425 23.9995 38.3425C22.9663 38.3425 21.9754 37.9321 21.2448 37.2015C20.5141 36.4709 20.1037 35.4799 20.1037 34.4467V32.9238L15.2771 32.3444C14.8848 32.2972 14.5114 32.1494 14.1931 31.9153C13.8749 31.6812 13.6226 31.3687 13.4607 31.0083C13.2989 30.6478 13.233 30.2516 13.2696 29.8582C13.3061 29.4648 13.4438 29.0875 13.6692 28.763C14.7619 27.1933 15.4028 25.3538 15.5222 23.4449L15.8353 18.4384ZM21.7938 14.9675C20.8157 14.9674 19.8743 15.3401 19.1613 16.0097C18.4483 16.6792 18.0173 17.5954 17.956 18.5715L17.6444 23.578C17.5003 25.8744 16.7291 28.0873 15.4145 29.9757C15.3982 29.9992 15.3882 30.0265 15.3855 30.0549C15.3829 30.0834 15.3876 30.1121 15.3993 30.1382C15.411 30.1643 15.4292 30.1869 15.4523 30.2039C15.4753 30.2208 15.5023 30.2315 15.5307 30.235L20.8248 30.871C22.9342 31.1232 25.0649 31.1232 27.1743 30.871L32.4684 30.235C32.4967 30.2315 32.5238 30.2208 32.5468 30.2039C32.5698 30.1869 32.5881 30.1643 32.5997 30.1382C32.6114 30.1121 32.6162 30.0834 32.6135 30.0549C32.6108 30.0265 32.6009 29.9992 32.5845 29.9757C31.2704 28.0872 30.4996 25.8743 30.3561 23.578L30.043 18.5715C29.9818 17.5954 29.5507 16.6792 28.8378 16.0097C28.1248 15.3401 27.1834 14.9674 26.2053 14.9675H21.7938ZM23.9995 36.2175C23.022 36.2175 22.2287 35.4242 22.2287 34.4467V33.3842H25.7704V34.4467C25.7704 35.4242 24.977 36.2175 23.9995 36.2175Z" fill="white"/>
<path d="M31.9946 9.44962C31.7824 9.63488 31.6524 9.89685 31.6333 10.1779C31.6142 10.459 31.7075 10.7361 31.8926 10.9485L33.723 13.0451C34.4331 13.8594 34.8343 14.8974 34.8563 15.9776L34.9371 19.8267C34.9429 20.1085 35.0604 20.3764 35.2638 20.5716C35.4672 20.7667 35.7397 20.8731 36.0215 20.8672C36.3033 20.8614 36.5712 20.7439 36.7664 20.5405C36.9615 20.3371 37.0679 20.0646 37.0621 19.7828L36.9813 15.9323C36.9484 14.3541 36.3617 12.8377 35.3238 11.6483L33.4935 9.55162C33.3082 9.33939 33.0462 9.20942 32.7652 9.19029C32.4841 9.17116 32.207 9.26444 31.9946 9.44962Z" fill="white"/>
</svg>
