<svg width="64" height="64" viewBox="0 0 64 64" fill="none" xmlns="http://www.w3.org/2000/svg">
<path d="M14.416 16.9792H48.5827M14.416 30.6459H23.8118M14.416 44.3126H23.8118" stroke="#007E85" stroke-width="4" stroke-linecap="round"/>
<path d="M37.9049 40.0417C39.8305 40.0417 41.6772 39.2768 43.0388 37.9152C44.4004 36.5536 45.1654 34.7069 45.1654 32.7813C45.1654 30.8557 44.4004 29.009 43.0388 27.6474C41.6772 26.2858 39.8305 25.5209 37.9049 25.5209C35.9794 25.5209 34.1326 26.2858 32.7711 27.6474C31.4095 29.009 30.6445 30.8557 30.6445 32.7813C30.6445 34.7069 31.4095 36.5536 32.7711 37.9152C34.1326 39.2768 35.9794 40.0417 37.9049 40.0417Z" fill="white" stroke="#007E85" stroke-width="4"/>
<path d="M42.6035 38.3334L48.5827 44.3553" stroke="#007E85" stroke-width="4" stroke-linecap="round"/>
<rect opacity="0.14" y="0.00012207" width="64" height="64" rx="30" fill="#007E85"/>
</svg>
