<svg width="64" height="64" viewBox="0 0 64 64" fill="none" xmlns="http://www.w3.org/2000/svg">
<path d="M31.5 17.1668C23.2294 17.1668 16.5 23.5971 16.5 31.5001C16.5 39.4032 23.2294 45.8335 31.5 45.8335C39.7706 45.8335 46.5 39.4032 46.5 31.5001C46.5 23.5971 39.7706 17.1668 31.5 17.1668ZM22.125 31.5001C22.125 30.0095 22.545 28.6263 23.22 27.3883L35.8031 39.4121C34.4787 40.0889 33.0019 40.448 31.5 40.4585C26.3306 40.4585 22.125 36.4398 22.125 31.5001ZM39.78 35.612L27.1969 23.5881C28.5213 22.9113 29.9981 22.5523 31.5 22.5418C36.6694 22.5418 40.875 26.5605 40.875 31.5001C40.875 32.9908 40.455 34.374 39.78 35.612Z" fill="#007E85"/>
<rect opacity="0.14" y="0.00012207" width="64" height="64" rx="30" fill="#007E85"/>
</svg>
