<svg width="41" height="40" viewBox="0 0 41 40" fill="none" xmlns="http://www.w3.org/2000/svg">
<rect opacity="0.2" x="0.742188" width="39.8159" height="40" rx="19.908" fill="#05C168"/>
<g clip-path="url(#clip0_2870_11898)">
<path d="M21.0026 10.833C26.0654 10.833 30.1693 14.9369 30.1693 19.9997C30.1693 25.0624 26.0654 29.1663 21.0026 29.1663C15.9399 29.1663 11.8359 25.0624 11.8359 19.9997C11.8359 14.9369 15.9399 10.833 21.0026 10.833ZM21.0026 14.4997C20.7595 14.4997 20.5263 14.5963 20.3544 14.7682C20.1825 14.9401 20.0859 15.1732 20.0859 15.4163V19.9997C20.086 20.2428 20.1826 20.4759 20.3545 20.6478L23.1045 23.3978C23.2774 23.5647 23.509 23.6571 23.7493 23.655C23.9897 23.653 24.2196 23.5565 24.3895 23.3866C24.5595 23.2166 24.6559 22.9867 24.658 22.7464C24.6601 22.506 24.5677 22.2745 24.4007 22.1016L21.9193 19.6202V15.4163C21.9193 15.1732 21.8227 14.9401 21.6508 14.7682C21.4789 14.5963 21.2457 14.4997 21.0026 14.4997Z" fill="#05C168"/>
</g>
<defs>
<clipPath id="clip0_2870_11898">
<rect width="22" height="22" fill="white" transform="translate(10.002 9)"/>
</clipPath>
</defs>
</svg>
