<svg width="430" height="415" viewBox="0 0 430 415" fill="none" xmlns="http://www.w3.org/2000/svg">
<g clip-path="url(#clip0_2512_11782)">
<path d="M449.023 365.295H-37V365.566H449.023V365.295Z" fill="#EBEBEB"/>
<path d="M400.325 382.927H368.131V383.199H400.325V382.927Z" fill="#EBEBEB"/>
<path d="M284.961 385.908H276.514V386.18H284.961V385.908Z" fill="#EBEBEB"/>
<path d="M367.158 372.757H320.82V373.029H367.158V372.757Z" fill="#EBEBEB"/>
<path d="M37.0122 374.599H13.9941V374.871H37.0122V374.599Z" fill="#EBEBEB"/>
<path d="M70.7914 374.599H45.6641V374.871H70.7914V374.599Z" fill="#EBEBEB"/>
<path d="M153.628 379.223H90.7949V379.495H153.628V379.223Z" fill="#EBEBEB"/>
<path d="M193.376 316.418H5.68324C4.21287 316.415 2.80361 315.754 1.76481 314.581C0.726013 313.408 0.142576 311.818 0.142578 310.16V12.7031C0.155378 11.0549 0.744463 9.47897 1.78188 8.31759C2.81929 7.15621 4.22125 6.50319 5.68324 6.50037H193.376C194.848 6.50037 196.259 7.15964 197.3 8.33315C198.341 9.50667 198.926 11.0983 198.926 12.7579V310.16C198.926 311.82 198.341 313.412 197.3 314.585C196.259 315.759 194.848 316.418 193.376 316.418ZM5.68324 6.71954C4.27732 6.72245 2.92987 7.35414 1.93665 8.47596C0.943422 9.59778 0.385587 11.1181 0.38559 12.7031V310.16C0.385587 311.745 0.943422 313.266 1.93665 314.388C2.92987 315.509 4.27732 316.141 5.68324 316.144H193.376C194.782 316.141 196.131 315.51 197.126 314.388C198.12 313.267 198.68 311.746 198.683 310.16V12.7031C198.68 11.1171 198.12 9.59679 197.126 8.47529C196.131 7.35378 194.782 6.72244 193.376 6.71954H5.68324Z" fill="#EBEBEB"/>
<path d="M403.639 316.418H215.937C214.466 316.415 213.056 315.755 212.015 314.582C210.975 313.409 210.389 311.819 210.387 310.16V12.7031C210.402 11.0539 210.993 9.47798 212.032 8.3169C213.071 7.15583 214.474 6.50316 215.937 6.50037H403.639C405.099 6.50607 406.499 7.16036 407.534 8.32144C408.57 9.48251 409.157 11.0568 409.17 12.7031V310.16C409.17 311.816 408.588 313.405 407.551 314.577C406.515 315.75 405.108 316.412 403.639 316.418ZM215.937 6.71954C214.53 6.72244 213.182 7.35378 212.187 8.47529C211.192 9.59679 210.632 11.1171 210.63 12.7031V310.16C210.632 311.746 211.192 313.267 212.187 314.388C213.182 315.51 214.53 316.141 215.937 316.144H403.639C405.046 316.141 406.394 315.51 407.389 314.388C408.384 313.267 408.944 311.746 408.947 310.16V12.7031C408.944 11.1171 408.384 9.59679 407.389 8.47529C406.394 7.35378 405.046 6.72244 403.639 6.71954H215.937Z" fill="#EBEBEB"/>
<path d="M392.072 34.9934H238.518V365.295H392.072V34.9934Z" fill="#EBEBEB"/>
<path d="M380.65 45.7661H249.939V365.295H380.65V45.7661Z" fill="#F5F5F5"/>
<path d="M333.681 72.2646H296.928V83.7167H333.681V72.2646Z" fill="white"/>
<path d="M350.234 186.029H370.17C370.995 186.029 371.786 186.398 372.37 187.056C372.953 187.714 373.281 188.606 373.281 189.536C373.281 190.466 372.953 191.359 372.37 192.016C371.786 192.674 370.995 193.044 370.17 193.044H350.234C349.409 193.044 348.617 192.674 348.034 192.016C347.451 191.359 347.123 190.466 347.123 189.536C347.123 188.606 347.451 187.714 348.034 187.056C348.617 186.398 349.409 186.029 350.234 186.029Z" fill="white"/>
<path d="M133.535 70.1385H31.4121V162.928H133.535V70.1385Z" fill="#EBEBEB"/>
<path d="M128.043 156.747V76.3195H36.8845V156.747H128.043Z" fill="#FAFAFA"/>
<path d="M117.42 117.592V113.744H47.5201V117.592H117.42Z" fill="#E0E0E0"/>
<path d="M117.42 126.348V122.5H47.5201V126.348H117.42Z" fill="#E0E0E0"/>
<path d="M117.42 135.094V131.245H47.5201V135.094H117.42Z" fill="#E0E0E0"/>
<path d="M99.8945 143.85V140.002H65.0467V143.85H99.8945Z" fill="#E0E0E0"/>
<path d="M47.5674 76.3194C47.5674 77.8988 47.2904 79.4627 46.7522 80.921C46.214 82.3792 45.4254 83.7031 44.4316 84.8164C43.4378 85.9297 42.2585 86.8104 40.9616 87.4078C39.6647 88.0052 38.2759 88.3076 36.8749 88.2974C34.942 88.3028 33.0451 87.7075 31.3926 86.5769V70.1385H45.9733C46.9949 71.9962 47.5462 74.1337 47.5674 76.3194Z" fill="#EBEBEB"/>
<path d="M133.536 70.1385V86.5769C131.504 87.955 129.122 88.527 126.768 88.2018C124.414 87.8766 122.224 86.6729 120.547 84.7824C118.871 82.8919 117.803 80.4233 117.514 77.7696C117.226 75.1158 117.733 72.4296 118.956 70.1385H133.536Z" fill="#EBEBEB"/>
<path d="M47.5678 156.758C47.5712 158.932 47.0468 161.066 46.0514 162.928H31.4707V146.489C33.0834 145.401 34.9233 144.813 36.8028 144.787C38.6824 144.761 40.5345 145.297 42.1705 146.341C43.8064 147.385 45.1678 148.898 46.1159 150.728C47.0641 152.558 47.565 154.639 47.5678 156.758Z" fill="#EBEBEB"/>
<path d="M133.537 146.478V162.917H118.956C117.953 161.058 117.425 158.923 117.43 156.747C117.432 154.625 117.933 152.541 118.882 150.709C119.831 148.876 121.194 147.36 122.833 146.315C124.471 145.27 126.326 144.734 128.208 144.761C130.09 144.787 131.932 145.376 133.546 146.467L133.537 146.478Z" fill="#EBEBEB"/>
<path d="M91.4055 97.5505C92.2063 91.9885 88.8561 86.7477 83.9227 85.8448C78.9892 84.942 74.3407 88.719 73.5398 94.281C72.739 99.843 76.0892 105.084 81.0227 105.987C85.9561 106.89 90.6047 103.113 91.4055 97.5505Z" fill="#E0E0E0"/>
<path d="M216.063 233.514H13.9941V241.711H216.063V233.514Z" fill="#EBEBEB"/>
<path d="M214.312 241.711H148.66V365.295H214.312V241.711Z" fill="#F5F5F5"/>
<path d="M82.1442 241.711H16.4922V365.295H82.1442V241.711Z" fill="#F5F5F5"/>
<path d="M18.7376 241.711H16.4922V365.295H18.7376V241.711Z" fill="#EBEBEB"/>
<path d="M150.906 241.711H148.66V365.295H150.906V241.711Z" fill="#EBEBEB"/>
<path d="M50.9712 213.755H38.8984L39.8705 233.514H49.9992L50.9712 213.755Z" fill="#F0F0F0"/>
<path d="M155.787 224.944H92.7109V233.514H155.787V224.944Z" fill="#F0F0F0"/>
<path d="M155.796 225.952H126.713V232.518H155.796V225.952Z" fill="#FAFAFA"/>
<path d="M206.011 414.785C310.1 414.785 394.481 409.231 394.481 402.379C394.481 395.528 310.1 389.974 206.011 389.974C101.922 389.974 17.541 395.528 17.541 402.379C17.541 409.231 101.922 414.785 206.011 414.785Z" fill="#F5F5F5"/>
<path d="M294.185 325.646C311.192 325.646 324.979 310.102 324.979 290.928C324.979 271.754 311.192 256.211 294.185 256.211C277.178 256.211 263.391 271.754 263.391 290.928C263.391 310.102 277.178 325.646 294.185 325.646Z" fill="white"/>
<path d="M294.185 326.073C288.019 326.075 281.991 324.015 276.863 320.155C271.736 316.294 267.739 310.806 265.378 304.384C263.017 297.963 262.398 290.896 263.6 284.078C264.802 277.259 267.77 270.996 272.129 266.08C276.488 261.164 282.043 257.815 288.09 256.458C294.138 255.101 300.406 255.797 306.103 258.456C311.8 261.116 316.669 265.621 320.095 271.401C323.52 277.181 325.349 283.976 325.349 290.927C325.341 300.244 322.056 309.177 316.213 315.765C310.371 322.354 302.449 326.061 294.185 326.073ZM294.185 256.648C288.169 256.648 282.288 258.659 277.286 262.428C272.284 266.196 268.386 271.552 266.084 277.819C263.782 284.085 263.181 290.98 264.355 297.632C265.529 304.284 268.427 310.394 272.682 315.189C276.936 319.984 282.357 323.249 288.257 324.571C294.158 325.893 300.274 325.212 305.831 322.615C311.389 320.018 316.138 315.622 319.479 309.981C322.82 304.341 324.602 297.71 324.601 290.927C324.593 281.837 321.386 273.121 315.683 266.694C309.98 260.267 302.249 256.654 294.185 256.648Z" fill="#007E85"/>
<path d="M299.143 271.245H289.229V310.61H299.143V271.245Z" fill="#007E85"/>
<path d="M311.643 296.528V285.349H276.727V296.528H311.643Z" fill="#007E85"/>
<path d="M85.5848 28.4948L84.9238 27.6948C89.4235 22.8992 95.1332 19.7975 101.264 18.8181L101.4 19.914C95.4669 20.8574 89.9404 23.8559 85.5848 28.4948Z" fill="#007E85"/>
<path d="M78.3923 40.473L77.4883 40.0784C78.4695 37.2867 79.7771 34.6552 81.3765 32.2538L82.1541 32.9113C80.6119 35.2353 79.3471 37.7776 78.3923 40.473Z" fill="#007E85"/>
<path d="M105.513 82.4564C120.244 82.4564 132.186 68.993 132.186 52.3852C132.186 35.7773 120.244 22.314 105.513 22.314C90.7817 22.314 78.8398 35.7773 78.8398 52.3852C78.8398 68.993 90.7817 82.4564 105.513 82.4564Z" fill="#007E85"/>
<path d="M121.445 38.8401C120.418 37.6378 119.188 36.6784 117.828 36.0181C116.468 35.3578 115.005 35.0099 113.524 34.9945C112.044 34.9792 110.575 35.2969 109.205 35.929C107.834 36.561 106.589 37.4948 105.542 38.6757C104.497 37.4951 103.252 36.5616 101.883 35.9297C100.513 35.2977 99.0452 34.9801 97.5653 34.9954C96.0854 35.0107 94.6231 35.3587 93.2639 36.0188C91.9047 36.6789 90.6759 37.6381 89.6494 38.8401C87.6379 41.2932 86.5542 44.534 86.6286 47.8737C86.703 51.2135 87.9297 54.3888 90.048 56.725L102.685 70.9716C103.064 71.399 103.514 71.7381 104.009 71.9694C104.504 72.2008 105.035 72.3198 105.572 72.3198C106.108 72.3198 106.639 72.2008 107.134 71.9694C107.629 71.7381 108.079 71.399 108.459 70.9716L121.095 56.725C123.207 54.3816 124.425 51.2023 124.49 47.8626C124.555 44.5229 123.463 41.2862 121.445 38.8401Z" fill="white"/>
<path d="M105.512 65.525C105.316 65.5175 105.126 65.4433 104.969 65.3123C104.811 65.1812 104.692 64.9994 104.627 64.7908L98.999 46.2374L96.6467 53.9962C96.5798 54.2119 96.4548 54.3986 96.2893 54.5302C96.1237 54.6618 95.9258 54.7319 95.7232 54.7305H86.3041C86.0463 54.7305 85.799 54.615 85.6167 54.4095C85.4344 54.204 85.332 53.9253 85.332 53.6346C85.332 53.344 85.4344 53.0652 85.6167 52.8597C85.799 52.6542 86.0463 52.5387 86.3041 52.5387H95.0525L98.1047 42.4894C98.1708 42.2741 98.2948 42.0873 98.4595 41.9552C98.6241 41.823 98.8212 41.752 99.0233 41.752C99.2254 41.752 99.4225 41.823 99.5871 41.9552C99.7518 42.0873 99.8758 42.2741 99.9419 42.4894L105.667 61.3716L111.227 46.61C111.298 46.4218 111.413 46.2595 111.561 46.1414C111.709 46.0233 111.883 45.954 112.063 45.9415C112.245 45.9297 112.427 45.9758 112.586 46.0747C112.746 46.1735 112.878 46.321 112.967 46.5004L115.903 52.5278H124.758C125.016 52.5278 125.263 52.6432 125.446 52.8487C125.628 53.0543 125.73 53.333 125.73 53.6236C125.73 53.9143 125.628 54.193 125.446 54.3986C125.263 54.6041 125.016 54.7195 124.758 54.7195H115.339C115.165 54.7212 114.994 54.6702 114.844 54.5718C114.693 54.4735 114.569 54.3315 114.484 54.1606L112.18 49.5141L106.406 64.8565C106.332 65.0546 106.207 65.2236 106.048 65.3425C105.889 65.4614 105.703 65.5248 105.512 65.525Z" fill="#007E85"/>
<path d="M253.504 363.98H152.052C150.398 364 148.76 363.633 147.239 362.901C145.719 362.169 144.35 361.088 143.22 359.728C142.09 358.367 141.224 356.757 140.676 354.998C140.128 353.24 139.91 351.372 140.037 349.514L156.436 75.5414C156.722 71.6287 158.288 67.9758 160.83 65.2923C163.372 62.6088 166.708 61.0864 170.19 61.0209H271.662C273.319 60.9995 274.963 61.3683 276.487 62.1035C278.011 62.8388 279.382 63.9243 280.512 65.2909C281.643 66.6575 282.508 68.2749 283.053 70.04C283.598 71.805 283.81 73.6787 283.676 75.5414L267.249 349.514C266.953 353.416 265.384 357.055 262.845 359.728C260.305 362.4 256.977 363.915 253.504 363.98Z" fill="#263238"/>
<path d="M275.997 172.593H273.441C272.978 172.6 272.519 172.497 272.093 172.292C271.668 172.086 271.285 171.783 270.969 171.402C270.653 171.02 270.412 170.568 270.26 170.075C270.108 169.582 270.049 169.059 270.087 168.538L273.227 116.166C273.3 115.071 273.735 114.046 274.446 113.295C275.157 112.544 276.092 112.122 277.067 112.111H279.623C280.086 112.105 280.545 112.208 280.971 112.413C281.396 112.618 281.779 112.921 282.095 113.303C282.411 113.685 282.652 114.136 282.804 114.629C282.956 115.122 283.015 115.646 282.977 116.166L279.837 168.538C279.764 169.634 279.329 170.658 278.618 171.409C277.907 172.16 276.972 172.583 275.997 172.593Z" fill="#263238"/>
<path d="M154.959 137.656H152.412C152.035 137.662 151.662 137.579 151.315 137.414C150.968 137.248 150.655 137.003 150.396 136.694C150.138 136.385 149.939 136.019 149.812 135.618C149.686 135.218 149.634 134.793 149.661 134.369L150.799 115.454C150.87 114.566 151.231 113.739 151.81 113.132C152.39 112.525 153.147 112.181 153.938 112.166H156.495C156.87 112.164 157.242 112.248 157.588 112.415C157.933 112.582 158.244 112.828 158.501 113.136C158.758 113.445 158.956 113.81 159.083 114.209C159.209 114.607 159.261 115.031 159.236 115.454L158.099 134.369C158.029 135.258 157.669 136.086 157.089 136.693C156.509 137.3 155.75 137.644 154.959 137.656Z" fill="#007E85"/>
<path d="M152.937 171.432H150.381C150.005 171.436 149.632 171.352 149.286 171.186C148.94 171.019 148.629 170.774 148.371 170.465C148.114 170.156 147.916 169.79 147.79 169.391C147.664 168.991 147.613 168.567 147.64 168.144L148.777 149.229C148.849 148.341 149.209 147.514 149.789 146.907C150.368 146.301 151.126 145.957 151.917 145.941H154.493C154.868 145.939 155.24 146.024 155.586 146.191C155.931 146.358 156.242 146.603 156.499 146.912C156.756 147.22 156.954 147.585 157.081 147.984C157.207 148.383 157.259 148.807 157.234 149.229L156.097 168.144C156.027 169.037 155.664 169.868 155.08 170.476C154.496 171.083 153.732 171.424 152.937 171.432Z" fill="#007E85"/>
<path d="M251.356 363.98H149.903C148.25 364 146.611 363.633 145.091 362.901C143.57 362.169 142.202 361.089 141.072 359.728C139.942 358.368 139.075 356.757 138.527 354.998C137.979 353.24 137.762 351.372 137.889 349.514L154.297 75.5414C154.593 71.6273 156.171 67.9774 158.722 65.3017C161.273 62.626 164.616 61.1157 168.1 61.0647H269.513C271.167 61.0439 272.807 61.4114 274.328 62.144C275.849 62.8766 277.218 63.9582 278.349 65.3199C279.479 66.6816 280.345 68.2937 280.892 70.0534C281.44 71.8132 281.656 73.6822 281.528 75.5414L265.11 349.514C264.814 353.418 263.244 357.059 260.702 359.731C258.161 362.404 254.83 363.918 251.356 363.98Z" fill="#007E85"/>
<path opacity="0.3" d="M138.959 346.445L154.978 79.092H280.431L264.411 346.445H138.959Z" fill="white"/>
<path opacity="0.1" d="M188.484 346.445L233.257 79.092H261.359L216.586 346.445H188.484Z" fill="white"/>
<path opacity="0.1" d="M167.256 346.445L212.028 79.092H226.269L181.496 346.445H167.256Z" fill="white"/>
<path d="M206.146 67.7825H230.612C230.817 67.7785 231.019 67.823 231.207 67.9131C231.395 68.0031 231.564 68.1367 231.704 68.3052C231.843 68.4737 231.949 68.6733 232.016 68.8911C232.082 69.1089 232.108 69.34 232.09 69.5695C232.056 70.0526 231.864 70.5042 231.552 70.8365C231.239 71.1688 230.828 71.3581 230.399 71.3675H205.932C205.728 71.3699 205.525 71.324 205.337 71.2327C205.149 71.1414 204.98 71.0068 204.84 70.8375C204.701 70.6681 204.595 70.4679 204.529 70.2495C204.462 70.0311 204.437 69.7995 204.455 69.5695C204.489 69.0875 204.681 68.6372 204.994 68.3066C205.306 67.9761 205.717 67.7892 206.146 67.7825Z" fill="white"/>
<path d="M201.053 390.336L192.48 391.256L189.389 368.955L197.962 368.023L201.053 390.336Z" fill="#FFB573"/>
<path d="M191.499 386.533L200.48 383.388C200.635 383.327 200.805 383.337 200.953 383.414C201.102 383.492 201.218 383.632 201.277 383.804L204.193 391.837C204.266 392.052 204.298 392.282 204.288 392.512C204.277 392.742 204.225 392.967 204.134 393.173C204.042 393.379 203.914 393.562 203.757 393.709C203.6 393.856 203.418 393.965 203.221 394.029C199.975 395.125 196.884 395.377 192.966 397.317C188.388 399.508 186.473 402.445 181.545 402.445C178.016 402.445 177.219 398.796 178.716 398.292C185.52 395.969 184.626 394.062 189.564 388.067C190.078 387.373 190.745 386.843 191.499 386.533Z" fill="#263238"/>
<path opacity="0.2" d="M189.389 368.955L190.983 380.462L199.566 379.53L197.972 368.023L189.389 368.955Z" fill="black"/>
<path d="M195.59 87.1579C184.344 85.6675 173.155 86.6647 161.928 89.1195C160.057 89.5289 158.351 90.5994 157.056 92.1757C155.761 93.752 154.944 95.7523 154.725 97.8866C153.51 110.007 152.12 137.174 157.544 177.7L203.503 173.317C203.59 165.963 198.954 132.462 202.783 97.7003C202.94 96.4732 202.877 95.2231 202.598 94.0239C202.32 92.8246 201.831 91.7005 201.16 90.7178C200.49 89.7351 199.651 88.9138 198.695 88.3024C197.738 87.691 196.682 87.3018 195.59 87.1579Z" fill="white"/>
<path d="M168.83 97.5469L170.473 101.252C170.55 101.438 170.671 101.597 170.824 101.71C170.977 101.822 171.155 101.884 171.338 101.887L173.117 101.997C173.434 102.012 173.747 101.904 174.001 101.69L177.063 99.1142L173.282 96.0125L168.83 97.5469Z" fill="#263238"/>
<path d="M173.175 100.933C172.526 100.595 171.792 100.529 171.104 100.747C169.656 106.5 168.071 123.015 167.906 130.336C172.3 144.769 173.739 146.226 173.739 146.226L175.965 128.857C175.965 128.857 173.466 111.092 173.175 100.933Z" fill="#263238"/>
<path d="M185.861 62.1716C184.811 69.3168 183.917 82.3689 188.466 86.9826C185.132 90.9278 180.767 95.4976 173.283 96.0127C165.798 96.5278 166.955 90.6867 168.85 87.5634C175.839 85.4593 175.499 79.5853 174.128 74.0949L185.861 62.1716Z" fill="#FFB573"/>
<path d="M190.372 86.3579C189.842 86.1001 189.292 85.8983 188.729 85.7551C188.591 85.714 188.445 85.725 188.314 85.7864C188.182 85.8478 188.072 85.9561 188 86.0949C187.281 87.4757 185.084 93.6455 173.283 96.0126C175.227 97.3058 177.803 101.317 178.911 103.246C182.45 101.174 191.655 94.9825 190.78 86.9716C190.762 86.8392 190.716 86.7139 190.644 86.6069C190.573 86.4998 190.479 86.4142 190.372 86.3579Z" fill="#F5F5F5"/>
<path d="M168.917 87.8922C168.941 87.7675 168.938 87.6378 168.907 87.5148C168.876 87.3918 168.819 87.2795 168.74 87.188C168.66 87.0966 168.562 87.0289 168.454 86.9911C168.346 86.9533 168.231 86.9466 168.119 86.9716C167.711 87.0611 167.308 87.1819 166.914 87.3333C166.823 87.3734 166.738 87.4289 166.661 87.4977C165.757 88.4401 160.829 96.462 165.446 102.95C166.418 101.185 169.772 97.1853 173.281 96.0127C169.957 94.325 168.324 91.1799 168.917 87.8922Z" fill="#F5F5F5"/>
<path opacity="0.2" d="M181.077 67.0374L174.137 74.0949C174.471 75.3696 174.706 76.6751 174.837 77.9962C177.519 77.4812 181.126 74.051 181.32 70.873C181.452 69.5885 181.369 68.2877 181.077 67.0374Z" fill="black"/>
<path d="M171.805 40.5716C165.817 43.2127 165.428 48.7579 165.972 54.8181C166.517 60.8784 172.368 56.8674 173.671 53.0757C174.973 49.2839 180.096 36.9113 171.805 40.5716Z" fill="#263238"/>
<path d="M190.905 52.6592C189.243 62.2044 188.689 67.8701 183.848 72.2646C176.548 78.84 166.662 73.1633 165.787 63.3222C165 54.4564 167.848 40.3085 176.567 37.5468C178.469 36.9157 180.483 36.8548 182.412 37.3702C184.341 37.8856 186.117 38.9594 187.565 40.4856C189.013 42.0118 190.083 43.9375 190.669 46.0725C191.254 48.2075 191.336 50.4778 190.905 52.6592Z" fill="#FFB573"/>
<path d="M190.556 60.5606C183.431 60.988 184.938 56.4291 186.231 53.8099C187.523 51.1907 184.889 46.862 186.61 44.6154C183.538 45.9962 180.301 44.8565 176.189 41.6346C173.001 39.125 169.006 49.1524 165.118 44.1223C161.443 39.3771 164.855 32.2209 173.681 31.0702C182.508 29.9195 184.111 36.9551 189.905 36.3305C195.698 35.7058 193.686 41.0866 192.549 42.1825C197.409 42.5442 200.063 47.7825 190.556 60.5606Z" fill="#263238"/>
<path d="M191.43 42.8521C192.544 42.1626 193.476 41.1498 194.127 39.9185C194.778 38.6871 195.125 37.282 195.133 35.8484C197.058 39.6516 196.854 43.97 191.43 42.8521Z" fill="#263238"/>
<path d="M172.96 62.8542C173.735 63.0056 174.529 62.9786 175.294 62.7748C176.059 62.571 176.779 62.1946 177.412 61.6682C177.432 61.6477 177.447 61.623 177.457 61.5957C177.468 61.5683 177.473 61.5388 177.473 61.509C177.473 61.4792 177.468 61.4498 177.457 61.4224C177.447 61.395 177.432 61.3703 177.412 61.3498C177.374 61.3089 177.324 61.286 177.272 61.286C177.219 61.286 177.169 61.3089 177.131 61.3498C176.422 61.9175 175.606 62.2913 174.747 62.4419C173.889 62.5924 173.011 62.5155 172.183 62.2173C172.13 62.2024 172.074 62.2099 172.026 62.2382C171.978 62.2665 171.94 62.3137 171.92 62.371C171.905 62.4293 171.911 62.4919 171.937 62.5454C171.962 62.5988 172.005 62.6388 172.056 62.6565C172.352 62.7528 172.655 62.819 172.96 62.8542Z" fill="#263238"/>
<path d="M192.626 63.4866C191.295 65.4203 189.343 66.6875 187.192 67.0153C184.363 67.4318 183.42 64.4619 184.606 61.6893C185.685 59.1907 188.495 55.9688 191.1 56.8345C193.705 57.7003 194.259 61.0756 192.626 63.4866Z" fill="#FFB573"/>
<path d="M189.817 271.015C190.157 242.402 193.404 174.248 193.404 174.248L157.574 177.656C157.574 177.656 164.699 247.892 168.996 277.087C173.467 307.432 187.183 378.522 187.183 378.522L201.763 377.119C201.763 377.119 196.437 293.141 189.817 271.015Z" fill="#263238"/>
<path d="M186.308 378.972L203.601 377.317L202.92 371.026L184.898 372.385L186.308 378.972Z" fill="#007E85"/>
<path d="M178.132 53.2298C178.044 54.0082 177.597 54.6002 177.16 54.5454C176.722 54.4906 176.421 53.8108 176.518 53.0215C176.615 52.2321 177.053 51.651 177.49 51.7058C177.928 51.7607 178.229 52.4514 178.132 53.2298Z" fill="#263238"/>
<path d="M170.2 52.5283C170.113 53.3177 169.666 53.8987 169.228 53.8439C168.791 53.7891 168.489 53.1094 168.587 52.331C168.684 51.5526 169.121 50.9605 169.559 51.0154C169.996 51.0702 170.297 51.7061 170.2 52.5283Z" fill="#263238"/>
<path d="M172.436 53.4482C171.265 55.4765 169.859 57.3195 168.256 58.9284C169.286 60.145 171.415 59.8162 171.415 59.8162L172.436 53.4482Z" fill="#ED893E"/>
<path opacity="0.4" d="M165.185 52.725C165.039 53.9756 166.157 55.0178 167.702 55.2372C169.248 55.4566 170.677 54.5022 170.813 53.2516" fill="#007E85"/>
<path opacity="0.4" d="M174.371 53.8866C174.157 55.1259 175.236 56.2446 176.752 56.5737C178.269 56.9027 179.756 56.0253 179.96 54.7969" fill="#007E85"/>
<path d="M177.354 56.9119C177.179 56.9228 177.004 56.9228 176.829 56.9119C176.082 56.8111 175.38 56.4555 174.817 55.8926C174.571 55.6558 174.38 55.3561 174.258 55.0186C174.136 54.681 174.088 54.3155 174.117 53.9526C173.624 53.7104 173.098 53.5622 172.562 53.5142C172.023 53.3624 171.459 53.3624 170.919 53.5142C170.783 54.8513 169.306 55.772 167.653 55.5418C166.906 55.4498 166.202 55.0973 165.641 54.5335C165.397 54.2956 165.206 53.9957 165.084 53.6585C164.962 53.3212 164.913 52.9562 164.941 52.5935L165.408 52.6593C165.388 52.9395 165.428 53.221 165.525 53.4803C165.621 53.7396 165.771 53.9692 165.962 54.1499C166.451 54.6358 167.063 54.9384 167.711 55.0157C169.111 55.224 170.355 54.4897 170.482 53.3936C170.55 52.7798 171.677 52.8237 172.611 52.9552C173.544 53.0867 174.652 53.3827 174.555 53.9855C174.534 54.2658 174.574 54.5476 174.67 54.807C174.767 55.0665 174.917 55.2959 175.109 55.4761C175.604 55.9556 176.214 56.2609 176.861 56.3544C177.509 56.4479 178.167 56.3254 178.754 56.0022C178.98 55.8833 179.178 55.7048 179.33 55.4816C179.483 55.2583 179.585 54.9971 179.629 54.7198V54.4568L191.624 56.1995L191.565 56.7256L180.018 55.0486C179.934 55.3537 179.796 55.6364 179.612 55.8794C179.428 56.1225 179.202 56.3209 178.948 56.4625C178.457 56.7557 177.91 56.9099 177.354 56.9119Z" fill="#263238"/>
<path d="M181.185 49.7892C181.254 49.7894 181.322 49.7665 181.38 49.7234C181.474 49.6614 181.543 49.5602 181.572 49.4413C181.601 49.3224 181.588 49.1954 181.535 49.0876C181.234 48.4499 180.798 47.9061 180.265 47.5044C179.733 47.1028 179.12 46.8557 178.483 46.7852C178.374 46.7792 178.267 46.8218 178.185 46.9037C178.103 46.9857 178.053 47.1006 178.045 47.2238C178.04 47.3441 178.077 47.4621 178.148 47.5523C178.219 47.6424 178.318 47.6977 178.425 47.7062C178.929 47.7729 179.411 47.9776 179.83 48.3024C180.248 48.6272 180.59 49.0623 180.825 49.5699C180.862 49.6397 180.915 49.6969 180.978 49.7356C181.042 49.7742 181.113 49.7927 181.185 49.7892Z" fill="#263238"/>
<path d="M167.635 48.5523C167.702 48.5597 167.77 48.5486 167.833 48.5199C167.896 48.4913 167.951 48.4459 167.995 48.3877C168.309 47.9231 168.716 47.5482 169.182 47.2929C169.647 47.0376 170.16 46.9091 170.678 46.9176C170.731 46.9237 170.786 46.9177 170.837 46.9C170.889 46.8822 170.937 46.8532 170.978 46.8144C171.02 46.7756 171.054 46.728 171.079 46.6741C171.105 46.6203 171.12 46.5614 171.125 46.5008C171.132 46.4416 171.128 46.3816 171.114 46.3241C171.1 46.2665 171.076 46.2127 171.043 46.1658C171.011 46.1188 170.97 46.0796 170.924 46.0505C170.878 46.0214 170.827 46.0029 170.775 45.9961C170.122 45.9768 169.474 46.1305 168.883 46.4449C168.292 46.7592 167.775 47.2255 167.373 47.8063C167.303 47.8995 167.27 48.0199 167.279 48.1412C167.288 48.2625 167.339 48.3747 167.421 48.4535C167.485 48.505 167.558 48.5388 167.635 48.5523Z" fill="#263238"/>
<path d="M219.668 266.402C212.232 223.311 210.56 189.613 203.503 173.251L168.791 177.635C168.791 177.635 189.466 241.843 199.566 269.251C210.054 297.744 230.759 346.423 230.759 346.423H248.1C248.1 346.423 231.916 286.029 219.668 266.402Z" fill="#263238"/>
<path d="M109.642 103.278L105.89 100.604C105.281 100.162 104.555 99.9716 103.835 100.066C103.115 100.159 102.447 100.532 101.944 101.119L99.3967 104.144C99.1225 104.471 98.9105 104.857 98.7739 105.279C98.6373 105.702 98.5791 106.152 98.6028 106.6C98.6265 107.049 98.7316 107.488 98.9116 107.889C99.0917 108.29 99.3428 108.646 99.6495 108.933L101.467 110.687C103.048 112.197 104.893 113.317 106.881 113.974L112.374 115.804L115.98 111.421C117.078 106.851 109.642 103.278 109.642 103.278Z" fill="#FFB573"/>
<path d="M165.186 101.229C163.825 104.977 162.493 108.462 161.045 112.024C159.597 115.585 158.129 119.103 156.505 122.599C154.882 126.095 153.152 129.569 151.188 133.054C150.216 134.785 149.137 136.517 147.913 138.259C146.596 140.181 145.096 141.933 143.441 143.487C142.348 144.494 141.142 145.334 139.854 145.985C139.446 146.161 139.067 146.336 138.62 146.489L137.939 146.698C137.597 146.792 137.25 146.862 136.899 146.906C135.714 147.056 134.515 146.96 133.361 146.621C131.918 146.166 130.547 145.459 129.298 144.528C128.362 143.869 127.469 143.137 126.625 142.336C123.819 139.575 121.234 136.542 118.897 133.273C116.632 130.204 114.494 127.125 112.443 123.98C110.392 120.835 108.418 117.744 106.396 114.446L117.147 106.621C120.54 112.795 124.294 118.708 128.384 124.32C130.264 126.919 132.336 129.335 134.576 131.541C135.01 131.942 135.468 132.308 135.947 132.637C136.306 132.911 136.666 133.021 136.413 132.922C136.071 132.816 135.714 132.794 135.363 132.857C135.222 132.871 135.082 132.901 134.945 132.944H134.868C134.819 132.944 134.819 132.944 134.809 132.944C135.03 132.781 135.242 132.602 135.441 132.407C136.328 131.499 137.133 130.493 137.842 129.404C138.668 128.155 139.495 126.752 140.282 125.295C141.891 122.264 143.358 119.14 144.676 115.936C146.037 112.648 147.349 109.361 148.564 105.941C149.779 102.522 150.936 99.0483 151.917 95.7278L165.186 101.229Z" fill="#007E85"/>
<g opacity="0.6">
<path d="M165.186 101.229C163.825 104.977 162.493 108.462 161.045 112.024C159.597 115.585 158.129 119.103 156.505 122.599C154.882 126.095 153.152 129.569 151.188 133.054C150.216 134.785 149.137 136.517 147.913 138.259C146.596 140.181 145.096 141.933 143.441 143.487C142.348 144.494 141.142 145.334 139.854 145.985C139.446 146.161 139.067 146.336 138.62 146.489L137.939 146.698C137.597 146.792 137.25 146.862 136.899 146.906C135.714 147.056 134.515 146.96 133.361 146.621C131.918 146.166 130.547 145.459 129.298 144.528C128.362 143.869 127.469 143.137 126.625 142.336C123.819 139.575 121.234 136.542 118.897 133.273C116.632 130.204 114.494 127.125 112.443 123.98C110.392 120.835 108.418 117.744 106.396 114.446L117.147 106.621C120.54 112.795 124.294 118.708 128.384 124.32C130.264 126.919 132.336 129.335 134.576 131.541C135.01 131.942 135.468 132.308 135.947 132.637C136.306 132.911 136.666 133.021 136.413 132.922C136.071 132.816 135.714 132.794 135.363 132.857C135.222 132.871 135.082 132.901 134.945 132.944H134.868C134.819 132.944 134.819 132.944 134.809 132.944C135.03 132.781 135.242 132.602 135.441 132.407C136.328 131.499 137.133 130.493 137.842 129.404C138.668 128.155 139.495 126.752 140.282 125.295C141.891 122.264 143.358 119.14 144.676 115.936C146.037 112.648 147.349 109.361 148.564 105.941C149.779 102.522 150.936 99.0483 151.917 95.7278L165.186 101.229Z" fill="white"/>
</g>
<path d="M190.633 84.4073C186.988 92.0786 174.011 121.306 172.437 139.344C166.692 122.906 167.946 86.5443 167.946 86.5443C163.851 86.9942 159.835 88.1013 156.019 89.832C154.789 90.4017 153.723 91.3443 152.939 92.5551C152.154 93.766 151.683 95.1979 151.576 96.6923C150.458 115.507 150.985 134.4 153.151 153.098C157.185 188.495 160.928 243.541 160.928 243.541C160.928 243.541 193.054 242.029 217.841 236.133C214.818 209.076 204.475 163.728 204.378 151.585C204.261 135.958 204.582 105.405 205.02 92.6484C205.093 90.8474 204.592 89.0763 203.608 87.6553C202.624 86.2342 201.221 85.2571 199.654 84.9005C196.68 84.2792 193.646 84.1134 190.633 84.4073Z" fill="#007E85"/>
<path opacity="0.7" d="M190.633 84.4072C186.988 92.0784 174.011 121.306 172.437 139.344C166.692 122.906 167.946 86.5442 167.946 86.5442C163.851 86.9941 159.835 88.1011 156.019 89.8318C154.789 90.4016 153.723 91.3441 152.939 92.555C152.154 93.7658 151.683 95.1977 151.576 96.6921C150.458 115.507 150.985 134.4 153.151 153.098C157.185 188.495 160.928 243.541 160.928 243.541C160.928 243.541 193.054 242.029 217.841 236.133C214.818 209.076 204.475 163.728 204.378 151.585C204.261 135.958 204.582 105.393 205.02 92.6373C205.111 90.8911 204.654 89.1643 203.727 87.7611C202.801 86.3578 201.465 85.3681 199.955 84.9661C196.886 84.288 193.748 84.0998 190.633 84.4072Z" fill="white"/>
<path d="M183.061 237.667C177.482 202.96 173.059 152.034 172.699 145.908H173.195C173.555 152.034 177.987 202.895 183.557 237.601L183.061 237.667Z" fill="white"/>
<path d="M180.281 175.925H150.653C150.055 175.894 149.482 175.646 149.019 175.217C148.556 174.789 148.229 174.203 148.087 173.547L138.182 121.634C138.109 121.351 138.098 121.052 138.147 120.763C138.197 120.473 138.307 120.201 138.469 119.969C138.63 119.737 138.838 119.551 139.076 119.427C139.313 119.303 139.573 119.245 139.834 119.256H169.453C170.053 119.284 170.628 119.532 171.093 119.96C171.557 120.389 171.886 120.977 172.029 121.634L181.934 173.547C182.006 173.83 182.018 174.129 181.968 174.418C181.918 174.708 181.808 174.98 181.647 175.212C181.486 175.444 181.278 175.63 181.04 175.754C180.803 175.878 180.543 175.936 180.281 175.925Z" fill="white"/>
<path d="M179.356 176.363H149.223C148.614 176.331 148.03 176.078 147.559 175.642C147.088 175.205 146.754 174.609 146.608 173.941L136.528 121.152C136.456 120.863 136.445 120.559 136.497 120.264C136.549 119.969 136.662 119.692 136.827 119.456C136.992 119.22 137.204 119.031 137.446 118.905C137.688 118.779 137.953 118.719 138.219 118.73H168.353C168.962 118.762 169.546 119.015 170.017 119.452C170.488 119.888 170.822 120.485 170.968 121.152L181.038 173.941C181.112 174.23 181.124 174.534 181.074 174.829C181.023 175.124 180.911 175.401 180.747 175.638C180.583 175.874 180.371 176.063 180.129 176.189C179.887 176.316 179.623 176.375 179.356 176.363Z" fill="#007E85"/>
<path d="M182.808 146.577L175.314 146.259C174.413 146.224 173.515 146.403 172.68 146.785L168.791 148.539C168.427 148.702 168.095 148.946 167.816 149.257C167.537 149.568 167.316 149.939 167.167 150.348C167.018 150.757 166.944 151.196 166.949 151.639C166.955 152.081 167.039 152.517 167.197 152.922L168.753 156.714C169.066 157.449 169.595 158.04 170.25 158.388C170.905 158.735 171.647 158.817 172.349 158.621L176.636 157.415C176.636 157.415 184.684 156.692 184.976 151.936L182.808 146.577Z" fill="#FFB573"/>
<path d="M203.503 89.1085C205.36 92.3962 207.061 95.3989 208.733 98.6208C210.405 101.843 212.048 105.032 213.593 108.363C215.139 111.695 216.607 115.136 217.938 118.818C218.63 120.746 219.22 122.719 219.707 124.725C220.334 127.17 220.623 129.709 220.563 132.254V132.681C220.566 132.754 220.566 132.827 220.563 132.9C220.563 133.295 220.466 133.689 220.398 134.084C220.329 134.478 220.242 134.785 220.145 135.18C220.048 135.574 219.941 135.782 219.834 136.089C219.462 137.037 218.985 137.929 218.415 138.741C217.62 139.86 216.717 140.875 215.722 141.766C214.193 143.124 212.568 144.337 210.862 145.393C207.861 147.243 204.772 148.904 201.608 150.369C198.546 151.837 195.494 153.174 192.422 154.434C189.35 155.695 186.327 156.911 183.129 158.117L179.426 144.308C182.342 143.41 185.316 142.303 188.223 141.185C191.129 140.067 194.055 138.818 196.816 137.514C199.525 136.252 202.167 134.814 204.728 133.207C205.809 132.532 206.84 131.758 207.81 130.895C208.064 130.677 208.293 130.423 208.49 130.139C208.406 130.245 208.34 130.367 208.296 130.5C208.296 130.599 208.247 130.665 208.198 130.785C208.16 130.914 208.131 131.046 208.111 131.18C208.07 131.348 208.044 131.521 208.033 131.695C208.033 131.761 208.033 131.771 208.033 131.75V131.673C207.965 130.633 207.786 129.606 207.498 128.615C207.11 127.181 206.649 125.772 206.118 124.396C204.93 121.363 203.586 118.41 202.094 115.552C200.578 112.615 198.964 109.678 197.234 106.785C195.503 103.892 193.734 101.01 191.955 98.3797L203.503 89.1085Z" fill="#007E85"/>
<g opacity="0.7">
<path d="M203.503 89.1085C205.36 92.3962 207.061 95.3989 208.733 98.6208C210.405 101.843 212.048 105.032 213.593 108.363C215.139 111.695 216.607 115.136 217.938 118.818C218.63 120.746 219.22 122.719 219.707 124.725C220.334 127.17 220.623 129.709 220.563 132.254V132.681C220.566 132.754 220.566 132.827 220.563 132.9C220.563 133.295 220.466 133.689 220.398 134.084C220.329 134.478 220.242 134.785 220.145 135.18C220.048 135.574 219.941 135.782 219.834 136.089C219.462 137.037 218.985 137.929 218.415 138.741C217.62 139.86 216.717 140.875 215.722 141.766C214.193 143.124 212.568 144.337 210.862 145.393C207.861 147.243 204.772 148.904 201.608 150.369C198.546 151.837 195.494 153.174 192.422 154.434C189.35 155.695 186.327 156.911 183.129 158.117L179.426 144.308C182.342 143.41 185.316 142.303 188.223 141.185C191.129 140.067 194.055 138.818 196.816 137.514C199.525 136.252 202.167 134.814 204.728 133.207C205.809 132.532 206.84 131.758 207.81 130.895C208.064 130.677 208.293 130.423 208.49 130.139C208.406 130.245 208.34 130.367 208.296 130.5C208.296 130.599 208.247 130.665 208.198 130.785C208.16 130.914 208.131 131.046 208.111 131.18C208.07 131.348 208.044 131.521 208.033 131.695C208.033 131.761 208.033 131.771 208.033 131.75V131.673C207.965 130.633 207.786 129.606 207.498 128.615C207.11 127.181 206.649 125.772 206.118 124.396C204.93 121.363 203.586 118.41 202.094 115.552C200.578 112.615 198.964 109.678 197.234 106.785C195.503 103.892 193.734 101.01 191.955 98.3797L203.503 89.1085Z" fill="white"/>
</g>
<path d="M193.665 127.136C193.6 127.135 193.537 127.115 193.481 127.079C193.424 127.042 193.378 126.99 193.344 126.927C193.316 126.88 193.296 126.826 193.287 126.769C193.277 126.713 193.278 126.654 193.289 126.598C193.3 126.542 193.32 126.489 193.35 126.442C193.38 126.395 193.417 126.355 193.461 126.325L194.977 125.229C196.393 124.223 197.504 122.755 198.163 121.022C198.823 119.288 199 117.369 198.671 115.519L195.619 98.0946C195.396 96.7918 194.789 95.612 193.897 94.7461C193.005 93.8802 191.88 93.3788 190.704 93.323C189.528 93.2672 188.37 93.6604 187.417 94.4388C186.463 95.2172 185.771 96.3354 185.451 97.6125L181.126 114.697C180.653 116.503 180.679 118.429 181.2 120.218C181.721 122.007 182.712 123.575 184.042 124.714L185.48 125.941C185.561 126.013 185.614 126.117 185.627 126.232C185.64 126.347 185.611 126.463 185.549 126.555C185.518 126.6 185.48 126.637 185.437 126.666C185.393 126.694 185.345 126.712 185.295 126.719C185.246 126.726 185.195 126.722 185.147 126.707C185.099 126.692 185.053 126.666 185.014 126.632L183.653 125.415C182.191 124.174 181.099 122.461 180.521 120.504C179.943 118.547 179.906 116.437 180.416 114.456L184.751 97.3714C185.124 95.9125 185.92 94.6369 187.012 93.7492C188.104 92.8616 189.429 92.4134 190.775 92.4766C192.12 92.5398 193.408 93.1107 194.431 94.0977C195.454 95.0847 196.153 96.4306 196.416 97.9193L199.468 115.355C199.829 117.376 199.636 119.472 198.915 121.367C198.195 123.261 196.981 124.864 195.434 125.963L193.908 127.059C193.874 127.09 193.835 127.112 193.794 127.125C193.752 127.139 193.708 127.142 193.665 127.136Z" fill="#263238"/>
<path d="M195.999 98.4581L185.083 97.9424C185.032 97.9396 184.982 97.9254 184.935 97.9007C184.889 97.8761 184.848 97.8413 184.813 97.7985C184.779 97.7557 184.753 97.7057 184.735 97.6513C184.718 97.5969 184.711 97.5393 184.713 97.4816C184.723 97.3672 184.77 97.2609 184.846 97.1838C184.921 97.1067 185.02 97.0642 185.122 97.0647L196.028 97.5804C196.079 97.5832 196.129 97.5973 196.175 97.622C196.222 97.6467 196.263 97.6815 196.297 97.7243C196.332 97.7671 196.358 97.8171 196.375 97.8715C196.393 97.9258 196.4 97.9835 196.397 98.0411C196.396 98.0983 196.385 98.1546 196.364 98.2067C196.343 98.2588 196.313 98.3057 196.276 98.3446C196.239 98.3834 196.195 98.4135 196.148 98.433C196.1 98.4525 196.049 98.461 195.999 98.4581Z" fill="#263238"/>
<path d="M190.691 93.3496C190.591 93.3469 190.495 93.3014 190.423 93.2221C190.35 93.1428 190.308 93.0356 190.303 92.9222C190.303 90.7304 189.7 86.9276 187.882 86.0948C187.832 86.0757 187.786 86.0453 187.746 86.0053C187.707 85.9653 187.675 85.9166 187.653 85.8623C187.631 85.8079 187.619 85.749 187.617 85.6892C187.616 85.6294 187.626 85.57 187.646 85.5145C187.666 85.4591 187.695 85.4088 187.733 85.3668C187.771 85.3249 187.816 85.2921 187.866 85.2704C187.915 85.2488 187.968 85.2389 188.021 85.2412C188.074 85.2435 188.126 85.258 188.174 85.2838C190.866 86.5331 191.09 92.2537 191.09 92.955C191.09 93.0705 191.051 93.1816 190.98 93.2652C190.91 93.3489 190.813 93.3987 190.711 93.4044L190.691 93.3496Z" fill="#263238"/>
<path d="M157.301 108.243H157.223C157.123 108.219 157.035 108.152 156.978 108.055C156.922 107.959 156.902 107.841 156.922 107.728C158.205 100.528 163.512 89.1633 168.188 85.8099C168.23 85.78 168.278 85.76 168.327 85.7509C168.377 85.7419 168.428 85.7441 168.477 85.7574C168.525 85.7706 168.571 85.7947 168.612 85.8282C168.652 85.8616 168.687 85.9039 168.713 85.9524C168.741 85.9993 168.76 86.0523 168.77 86.1081C168.779 86.1639 168.778 86.2212 168.768 86.2767C168.757 86.3321 168.736 86.3844 168.706 86.4304C168.677 86.4764 168.639 86.5151 168.596 86.5441C164.076 89.7661 158.924 100.791 157.68 107.881C157.664 107.982 157.617 108.073 157.548 108.139C157.479 108.205 157.391 108.242 157.301 108.243Z" fill="#263238"/>
<path d="M160.49 109.372C159.887 111.115 158.546 112.167 157.574 111.718C156.601 111.268 156.222 109.525 156.825 107.739C157.428 105.952 158.769 104.944 159.741 105.404C160.713 105.865 161.102 107.629 160.49 109.372Z" fill="white"/>
<path d="M186.152 126.348C186.152 127.159 185.705 127.806 185.228 127.784C184.752 127.762 184.383 127.082 184.412 126.26C184.441 125.438 184.859 124.791 185.335 124.824C185.812 124.856 186.181 125.525 186.152 126.348Z" fill="white"/>
<path d="M194.531 126.742C194.531 127.553 194.093 128.2 193.607 128.178C193.121 128.156 192.771 127.476 192.801 126.654C192.83 125.832 193.238 125.196 193.773 125.218C194.307 125.24 194.56 125.953 194.531 126.742Z" fill="white"/>
<path d="M359.371 111.541L358.399 111.476C358.56 109.142 358.29 106.797 357.605 104.588C356.92 102.378 355.836 100.354 354.42 98.6423C353.004 96.9308 351.288 95.5697 349.381 94.6453C347.474 93.721 345.418 93.2537 343.342 93.2729V92.177C345.551 92.1559 347.739 92.6525 349.769 93.6354C351.799 94.6183 353.625 96.0661 355.132 97.8868C356.639 99.7075 357.794 101.861 358.524 104.212C359.254 106.563 359.542 109.059 359.371 111.541Z" fill="#007E85"/>
<path d="M359.884 116.136L359.32 125.21L360.292 125.287L360.856 116.213L359.884 116.136Z" fill="#007E85"/>
<path d="M343.342 96.0126H276.271C272.608 96.0804 269.099 97.682 266.425 100.506C263.752 103.329 262.105 107.173 261.807 111.289L261.194 121.47C261.055 123.429 261.28 125.399 261.853 127.255C262.427 129.111 263.337 130.812 264.526 132.249C265.715 133.686 267.156 134.828 268.758 135.603C270.36 136.377 272.088 136.767 273.831 136.747H340.902L353.908 145.788L355.969 111.289C356.109 109.331 355.886 107.361 355.314 105.505C354.741 103.649 353.832 101.949 352.644 100.511C351.456 99.0737 350.015 97.9312 348.414 97.1567C346.812 96.3821 345.085 95.9925 343.342 96.0126Z" fill="#007E85"/>
<path d="M339.94 110.599H277.816V113.144H339.94V110.599Z" fill="white"/>
<path d="M339.395 119.618H293.271V122.163H339.395V119.618Z" fill="white"/>
<path d="M242.443 150.478H310.992C312.774 150.457 314.54 150.854 316.179 151.645C317.817 152.436 319.291 153.604 320.507 155.074C321.722 156.543 322.653 158.282 323.239 160.18C323.825 162.077 324.053 164.092 323.91 166.095L323.288 176.506C322.98 180.712 321.296 184.64 318.564 187.525C315.832 190.411 312.246 192.05 308.503 192.122H239.945L225.539 201.382L227.658 166.095C227.964 161.887 229.647 157.959 232.379 155.072C235.112 152.186 238.699 150.549 242.443 150.478Z" fill="white"/>
<path opacity="0.15" d="M242.443 150.478H310.992C312.774 150.457 314.54 150.854 316.179 151.645C317.817 152.436 319.291 153.604 320.507 155.074C321.722 156.543 322.653 158.282 323.239 160.18C323.825 162.077 324.053 164.092 323.91 166.095L323.288 176.506C322.98 180.712 321.296 184.64 318.564 187.525C315.832 190.411 312.246 192.05 308.503 192.122H239.945L225.539 201.382L227.658 166.095C227.964 161.887 229.647 157.959 232.379 155.072C235.112 152.186 238.699 150.549 242.443 150.478Z" fill="#007E85"/>
<path opacity="0.5" d="M307.511 165.393H243.979V168.004H307.511V165.393Z" fill="#007E85"/>
<path opacity="0.5" d="M268.532 174.61H243.424V177.221H268.532V174.61Z" fill="#007E85"/>
<path opacity="0.5" d="M290.724 174.61H274.686V177.221H290.724V174.61Z" fill="#007E85"/>
</g>
<defs>
<clipPath id="clip0_2512_11782">
<rect width="430" height="415" fill="white"/>
</clipPath>
</defs>
</svg>
