<svg width="617" height="460" viewBox="0 0 617 460" fill="none" xmlns="http://www.w3.org/2000/svg">
<path d="M308.264 459.388C440.303 459.388 547.342 453.139 547.342 445.43C547.342 437.721 440.303 431.472 308.264 431.472C176.225 431.472 69.1865 437.721 69.1865 445.43C69.1865 453.139 176.225 459.388 308.264 459.388Z" fill="#F5F5F5"/>
<path d="M60.2471 117.831L341.347 158.3L379.067 196.364L60.2471 117.831Z" fill="#007E85"/>
<path opacity="0.6" d="M60.2471 117.831L341.347 158.3L379.067 196.364L60.2471 117.831Z" fill="white"/>
<path d="M60.2471 117.831L341.347 158.3L328.302 213.344L60.2471 117.831Z" fill="#007E85"/>
<path opacity="0.2" d="M60.2471 117.831L341.347 158.3L328.302 213.344L60.2471 117.831Z" fill="black"/>
<path d="M322.531 54.1065L338.845 130.556C339.269 132.552 338.884 134.636 337.775 136.348C336.665 138.061 334.921 139.264 332.926 139.693L187.327 170.766C185.331 171.187 183.249 170.801 181.537 169.692C179.825 168.583 178.621 166.841 178.19 164.847L161.864 88.3979C161.443 86.4002 161.831 84.3171 162.943 82.6047C164.054 80.8923 165.799 79.69 167.795 79.2609L313.394 48.1879C315.392 47.7672 317.475 48.1551 319.188 49.2667C320.9 50.3783 322.102 52.1229 322.531 54.1189V54.1065Z" fill="#007E85"/>
<path opacity="0.4" d="M322.531 54.1065L338.845 130.556C339.269 132.552 338.884 134.636 337.775 136.348C336.665 138.061 334.921 139.264 332.926 139.693L187.327 170.766C185.331 171.187 183.249 170.801 181.537 169.692C179.825 168.583 178.621 166.841 178.19 164.847L161.864 88.3979C161.443 86.4002 161.831 84.3171 162.943 82.6047C164.054 80.8923 165.799 79.69 167.795 79.2609L313.394 48.1879C315.392 47.7672 317.475 48.1551 319.188 49.2667C320.9 50.3783 322.102 52.1229 322.531 54.1189V54.1065Z" fill="black"/>
<path d="M318.943 49.1003L270.299 108.817C265.787 114.354 259.521 118.185 252.537 119.676C245.552 121.167 238.268 120.229 231.889 117.017L163.097 82.3682C164.21 80.7695 165.889 79.6541 167.795 79.2486L313.394 48.1755C315.294 47.7712 317.277 48.1016 318.943 49.1003Z" fill="#007E85"/>
<path d="M60.2471 117.831L292.099 172.936L328.302 213.344L60.2471 117.831Z" fill="#007E85"/>
<path opacity="0.6" d="M60.2471 117.831L292.099 172.936L328.302 213.344L60.2471 117.831Z" fill="white"/>
<path d="M144.821 170.945L144.198 172.009L169.999 187.122L170.623 186.058L144.821 170.945Z" fill="#007E85"/>
<path d="M182.014 192.721L181.391 193.785L190.668 199.22L191.292 198.156L182.014 192.721Z" fill="#007E85"/>
<path d="M60.2471 117.831L292.099 172.936L247.031 227.253L60.2471 117.831Z" fill="#007E85"/>
<path d="M370.361 246.932C370.048 246.933 369.739 246.874 369.448 246.76L331.692 231.815C331.088 231.572 330.605 231.099 330.348 230.501C330.091 229.902 330.081 229.227 330.32 228.621C330.559 228.015 331.029 227.529 331.625 227.268C332.222 227.007 332.897 226.993 333.505 227.228L371.273 242.173C371.808 242.384 372.251 242.775 372.528 243.278C372.805 243.782 372.897 244.366 372.789 244.93C372.681 245.495 372.379 246.003 371.936 246.369C371.492 246.734 370.935 246.934 370.361 246.932Z" fill="#007E85"/>
<path opacity="0.3" d="M370.361 246.932C370.048 246.933 369.739 246.874 369.448 246.76L331.692 231.815C331.088 231.572 330.605 231.099 330.348 230.501C330.091 229.902 330.081 229.227 330.32 228.621C330.559 228.015 331.029 227.529 331.625 227.268C332.222 227.007 332.897 226.993 333.505 227.228L371.273 242.173C371.808 242.384 372.251 242.775 372.528 243.278C372.805 243.782 372.897 244.366 372.789 244.93C372.681 245.495 372.379 246.003 371.936 246.369C371.492 246.734 370.935 246.934 370.361 246.932Z" fill="black"/>
<path d="M368.129 225.28C367.82 225.278 367.514 225.215 367.229 225.095L346.945 217.018C346.642 216.901 346.365 216.724 346.13 216.499C345.895 216.274 345.707 216.005 345.577 215.707C345.446 215.409 345.376 215.088 345.371 214.763C345.365 214.438 345.423 214.115 345.543 213.812C345.662 213.51 345.84 213.234 346.067 213.001C346.294 212.767 346.564 212.581 346.863 212.453C347.162 212.324 347.483 212.256 347.808 212.253C348.133 212.249 348.456 212.31 348.758 212.431L369.042 220.471C369.649 220.71 370.137 221.181 370.399 221.779C370.66 222.378 370.673 223.056 370.435 223.664C370.261 224.137 369.947 224.545 369.535 224.833C369.123 225.122 368.632 225.278 368.129 225.28Z" fill="#007E85"/>
<path opacity="0.5" d="M368.129 225.28C367.82 225.278 367.514 225.215 367.229 225.095L346.945 217.018C346.642 216.901 346.365 216.724 346.13 216.499C345.895 216.274 345.707 216.005 345.577 215.707C345.446 215.409 345.376 215.088 345.371 214.763C345.365 214.438 345.423 214.115 345.543 213.812C345.662 213.51 345.84 213.234 346.067 213.001C346.294 212.767 346.564 212.581 346.863 212.453C347.162 212.324 347.483 212.256 347.808 212.253C348.133 212.249 348.456 212.31 348.758 212.431L369.042 220.471C369.649 220.71 370.137 221.181 370.399 221.779C370.66 222.378 370.673 223.056 370.435 223.664C370.261 224.137 369.947 224.545 369.535 224.833C369.123 225.122 368.632 225.278 368.129 225.28Z" fill="white"/>
<path d="M325.725 246.612C325.417 246.608 325.112 246.55 324.824 246.439L287.993 231.815C287.69 231.697 287.413 231.521 287.178 231.296C286.943 231.071 286.755 230.802 286.625 230.504C286.494 230.206 286.424 229.885 286.418 229.56C286.413 229.235 286.471 228.912 286.591 228.609C286.71 228.307 286.888 228.031 287.115 227.797C287.341 227.564 287.612 227.378 287.911 227.25C288.209 227.121 288.531 227.053 288.856 227.049C289.181 227.046 289.504 227.106 289.806 227.228L326.637 241.803C327.171 242.014 327.615 242.405 327.892 242.908C328.169 243.412 328.261 243.996 328.153 244.56C328.044 245.125 327.743 245.633 327.299 245.999C326.856 246.364 326.299 246.564 325.725 246.562V246.612Z" fill="#007E85"/>
<path opacity="0.3" d="M325.725 246.612C325.417 246.608 325.112 246.55 324.824 246.439L287.993 231.815C287.69 231.697 287.413 231.521 287.178 231.296C286.943 231.071 286.755 230.802 286.625 230.504C286.494 230.206 286.424 229.885 286.418 229.56C286.413 229.235 286.471 228.912 286.591 228.609C286.71 228.307 286.888 228.031 287.115 227.797C287.341 227.564 287.612 227.378 287.911 227.25C288.209 227.121 288.531 227.053 288.856 227.049C289.181 227.046 289.504 227.106 289.806 227.228L326.637 241.803C327.171 242.014 327.615 242.405 327.892 242.908C328.169 243.412 328.261 243.996 328.153 244.56C328.044 245.125 327.743 245.633 327.299 245.999C326.856 246.364 326.299 246.564 325.725 246.562V246.612Z" fill="black"/>
<path d="M459.067 135.414C462.335 141.789 465.331 148.177 468.18 154.712C471.028 161.247 473.679 167.869 475.997 174.811L476.836 177.437C476.984 177.906 477.193 178.67 477.317 179.213C477.44 179.755 477.551 180.372 477.613 180.89C477.895 182.879 478.039 184.885 478.044 186.895C478.063 190.6 477.89 194.304 477.526 197.992C476.838 205.131 475.718 212.222 474.172 219.225L467.403 218.473C467.317 211.531 467.255 204.515 467.008 197.672C466.897 194.268 466.7 190.853 466.355 187.647C466.198 186.141 465.951 184.647 465.615 183.171C465.553 182.826 465.455 182.567 465.381 182.283C465.307 181.999 465.233 181.901 465.109 181.531L464.172 179.2C461.595 172.961 458.697 166.672 455.738 160.409L446.786 141.617L459.067 135.414Z" fill="#E4897B"/>
<path d="M467.501 216.303L464.345 222.209L474.431 225.021C474.431 225.021 476.355 220.273 474.061 216.525L467.501 216.303Z" fill="#E4897B"/>
<path d="M460.485 230.717L469.758 231.457L474.431 225.021L464.345 222.209L460.485 230.717Z" fill="#E4897B"/>
<path d="M416.613 92.7999C416.477 93.5274 415.972 94.033 415.503 93.9344C415.034 93.8357 414.775 93.1822 414.923 92.467C415.071 91.7519 415.565 91.234 416.033 91.3326C416.502 91.4313 416.773 92.0848 416.613 92.7999Z" fill="#263238"/>
<path d="M416.046 94.033C414.744 96.0503 413.172 97.8799 411.373 99.4708C411.793 99.9175 412.305 100.268 412.873 100.498C413.441 100.728 414.053 100.832 414.665 100.802L416.046 94.033Z" fill="#DE5753"/>
<path d="M420.041 89.3597C419.924 89.3568 419.814 89.308 419.733 89.2241C419.378 88.8189 418.934 88.5028 418.435 88.3015C417.935 88.1001 417.396 88.0191 416.86 88.065C416.757 88.066 416.658 88.0307 416.58 87.9654C416.501 87.9001 416.448 87.8091 416.43 87.7085C416.413 87.6078 416.431 87.5042 416.483 87.4159C416.534 87.3277 416.615 87.2606 416.712 87.2265C417.397 87.1396 418.094 87.2236 418.739 87.471C419.385 87.7184 419.959 88.1216 420.411 88.6445C420.49 88.7252 420.534 88.8337 420.534 88.9466C420.534 89.0596 420.49 89.1681 420.411 89.2487C420.362 89.2939 420.303 89.3274 420.239 89.3466C420.175 89.3658 420.107 89.3703 420.041 89.3597Z" fill="#263238"/>
<path d="M437.007 102.874C435.713 109.508 434.418 121.641 439.054 126.068C439.054 126.068 437.242 132.788 424.923 132.788C411.36 132.788 418.462 126.068 418.462 126.068C425.86 124.305 425.651 118.817 424.368 113.676L437.007 102.874Z" fill="#E4897B"/>
<path d="M440.916 130.248C441.89 127.005 442.963 123.293 440.744 122.122C438.278 120.889 424.874 119.533 420.25 121.937C415.626 124.342 416.946 130.938 416.946 130.938L440.916 130.248Z" fill="#263238"/>
<path d="M469.351 437.736C468.968 437.787 468.579 437.76 468.206 437.659C467.833 437.557 467.485 437.382 467.181 437.144C467.073 436.995 467.016 436.816 467.016 436.632C467.016 436.448 467.073 436.269 467.181 436.12C467.251 435.993 467.348 435.881 467.465 435.794C467.582 435.707 467.716 435.646 467.859 435.615C469.191 435.319 471.681 437.02 471.792 437.094C471.824 437.121 471.849 437.155 471.864 437.194C471.879 437.233 471.884 437.275 471.879 437.316C471.872 437.356 471.853 437.393 471.824 437.422C471.795 437.45 471.758 437.47 471.718 437.477C470.94 437.645 470.147 437.731 469.351 437.736ZM468.217 436.009H467.958C467.874 436.027 467.795 436.062 467.727 436.113C467.659 436.164 467.603 436.23 467.563 436.305C467.366 436.65 467.489 436.798 467.563 436.848C467.945 437.366 469.795 437.366 471.151 437.144C470.268 436.56 469.265 436.181 468.217 436.034V436.009Z" fill="#007E85"/>
<path d="M471.669 437.514H471.57C470.633 436.996 468.82 435.048 469.005 434.012C469.037 433.852 469.123 433.708 469.249 433.604C469.375 433.501 469.533 433.444 469.696 433.445C469.858 433.427 470.023 433.442 470.179 433.489C470.336 433.535 470.482 433.612 470.608 433.716C471.656 434.579 471.841 437.193 471.841 437.304C471.846 437.343 471.84 437.383 471.822 437.418C471.805 437.453 471.777 437.482 471.743 437.501C471.719 437.511 471.694 437.515 471.669 437.514ZM469.844 433.814H469.795C469.511 433.814 469.486 433.987 469.474 434.036C469.363 434.641 470.522 436.133 471.447 436.835C471.384 435.805 471.015 434.818 470.386 433.999C470.303 433.935 470.208 433.887 470.107 433.859C470.005 433.832 469.899 433.825 469.795 433.839L469.844 433.814Z" fill="#007E85"/>
<path d="M414.96 437.736C413.801 437.736 412.679 437.575 412.297 437.057C412.2 436.92 412.148 436.757 412.148 436.589C412.148 436.421 412.2 436.257 412.297 436.12C412.372 435.994 412.471 435.884 412.59 435.797C412.709 435.71 412.844 435.648 412.987 435.615C414.479 435.208 417.661 437.008 417.796 437.082C417.833 437.106 417.861 437.139 417.879 437.178C417.896 437.218 417.902 437.261 417.895 437.304C417.888 437.347 417.867 437.387 417.836 437.418C417.805 437.449 417.765 437.47 417.722 437.477C416.812 437.648 415.887 437.735 414.96 437.736ZM413.518 435.985C413.383 435.965 413.246 435.965 413.111 435.985C413.024 436.002 412.942 436.037 412.87 436.088C412.797 436.139 412.737 436.205 412.691 436.281C412.531 436.552 412.593 436.675 412.691 436.749C413.098 437.316 415.392 437.353 417.093 437.119C415.985 436.521 414.77 436.144 413.518 436.009V435.985Z" fill="#007E85"/>
<path d="M417.699 437.514H417.612C416.515 437.033 414.357 435.048 414.517 434.049C414.517 433.802 414.727 433.506 415.319 433.445C415.539 433.411 415.764 433.427 415.977 433.491C416.19 433.555 416.386 433.665 416.552 433.814C417.711 434.752 417.945 437.193 417.957 437.304C417.962 437.342 417.957 437.38 417.942 437.415C417.926 437.449 417.902 437.479 417.871 437.501C417.845 437.516 417.816 437.524 417.786 437.526C417.756 437.528 417.727 437.524 417.699 437.514ZM415.491 433.814H415.356C414.973 433.814 414.949 434.012 414.936 434.061C414.838 434.678 416.318 436.219 417.403 436.885C417.296 435.849 416.864 434.874 416.17 434.098C415.994 433.946 415.773 433.855 415.541 433.839L415.491 433.814Z" fill="#007E85"/>
<path d="M427.661 437.292H418.598L417.698 416.317H426.761L427.661 437.292Z" fill="#E4897B"/>
<path d="M482.051 437.292H472.988L468.438 416.317H477.489L482.051 437.292Z" fill="#E4897B"/>
<path d="M472.348 436.244H482.52C482.702 436.245 482.878 436.308 483.019 436.422C483.16 436.536 483.258 436.695 483.297 436.872L485.085 444.924C485.126 445.12 485.122 445.323 485.074 445.518C485.025 445.712 484.934 445.893 484.806 446.047C484.678 446.201 484.517 446.324 484.334 446.407C484.152 446.49 483.954 446.532 483.753 446.527C480.202 446.466 478.476 446.256 474 446.256C471.25 446.256 465.578 446.552 461.768 446.552C457.958 446.552 457.477 442.853 459.031 442.446C466.01 440.917 468.636 438.808 470.868 436.811C471.273 436.444 471.801 436.242 472.348 436.244Z" fill="#263238"/>
<path d="M418.66 436.244H428.524C428.706 436.245 428.882 436.308 429.023 436.422C429.164 436.536 429.262 436.695 429.301 436.872L431.089 444.924C431.132 445.119 431.13 445.32 431.084 445.514C431.038 445.707 430.949 445.888 430.823 446.042C430.698 446.196 430.539 446.32 430.358 446.404C430.178 446.488 429.981 446.53 429.782 446.527C426.219 446.466 421.064 446.256 416.576 446.256C411.336 446.256 406.798 446.552 400.645 446.552C396.946 446.552 395.898 442.853 397.451 442.446C404.541 440.892 410.324 440.732 416.453 436.959C417.105 436.515 417.871 436.267 418.66 436.244Z" fill="#263238"/>
<path d="M414.307 141.974C406.733 141.387 399.196 140.387 391.73 138.978C388.031 138.263 384.258 137.461 380.509 136.45C376.667 135.467 372.894 134.231 369.214 132.751C368.265 132.356 367.303 131.925 366.354 131.518C365.285 130.991 364.255 130.39 363.271 129.718C361.495 128.546 359.966 127.326 358.45 126.117C355.429 123.651 352.63 121.185 349.818 118.657C344.307 113.552 339.078 108.275 334.035 102.726L338.573 97.6582L356.464 110.519C359.411 112.64 362.395 114.724 365.33 116.684C366.785 117.658 368.277 118.571 369.646 119.348C370.218 119.674 370.811 119.962 371.421 120.211C372.149 120.494 372.889 120.778 373.666 121.049C380.33 123.101 387.145 124.627 394.048 125.612C401.089 126.721 408.364 127.634 415.392 128.374L414.307 141.974Z" fill="#E4897B"/>
<path d="M455.27 128.115C463.766 130.063 472.348 154.884 472.348 154.884L454.875 167.425C454.875 167.425 449.943 155.859 445.183 145.747C440.202 135.156 446.589 126.13 455.27 128.115Z" fill="#007E85"/>
<path opacity="0.4" d="M455.27 128.115C463.766 130.063 472.348 154.884 472.348 154.884L454.875 167.425C454.875 167.425 449.943 155.859 445.183 145.747C440.202 135.156 446.589 126.13 455.27 128.115Z" fill="black"/>
<path d="M450.374 141.678L446.909 149.434C450.497 157.178 453.777 164.848 454.653 166.894C454.529 157.733 452.791 146.364 450.374 141.678Z" fill="#007E85"/>
<path opacity="0.6" d="M450.374 141.678L446.909 149.434C450.497 157.178 453.777 164.848 454.653 166.894C454.529 157.733 452.791 146.364 450.374 141.678Z" fill="black"/>
<path d="M404.529 128.583C404.529 128.583 394.887 139.471 403.987 206.882H452.433C452.779 199.484 448.105 163.158 455.269 128.115C449.914 127.084 444.498 126.4 439.055 126.068C432.196 125.673 425.321 125.673 418.463 126.068C413.76 126.542 409.101 127.383 404.529 128.583Z" fill="#007E85"/>
<path opacity="0.4" d="M404.529 128.583C404.529 128.583 394.887 139.471 403.987 206.882H452.433C452.779 199.484 448.105 163.158 455.269 128.115C449.914 127.084 444.498 126.4 439.055 126.068C432.196 125.673 425.321 125.673 418.463 126.068C413.76 126.542 409.101 127.383 404.529 128.583Z" fill="black"/>
<path d="M400.94 141.678C400.62 144.231 400.373 147.252 400.213 150.815C404.997 149.379 409.543 147.244 413.703 144.477L400.94 141.678Z" fill="#007E85"/>
<path opacity="0.6" d="M400.94 141.678C400.62 144.231 400.373 147.252 400.213 150.815C404.997 149.379 409.543 147.244 413.703 144.477L400.94 141.678Z" fill="black"/>
<path d="M421.705 143.035C415.219 148.781 390.459 148.201 390.459 148.201L389.646 124.231C398.007 125.422 406.441 126.031 414.886 126.056C428.684 125.772 428.783 136.697 421.705 143.035Z" fill="#007E85"/>
<path opacity="0.4" d="M421.705 143.035C415.219 148.781 390.459 148.201 390.459 148.201L389.646 124.231C398.007 125.422 406.441 126.031 414.886 126.056C428.684 125.772 428.783 136.697 421.705 143.035Z" fill="black"/>
<path d="M338.807 97.7075L332.641 90.4448L325.995 97.8432C325.995 97.8432 330.089 104.724 336.587 103.639L338.807 97.7075Z" fill="#E4897B"/>
<path d="M323.813 81.9737L321.421 91.4559L325.946 97.7938L332.592 90.4448L323.813 81.9737Z" fill="#E4897B"/>
<path d="M417.698 416.33L418.167 427.131H427.23L426.761 416.33H417.698Z" fill="#CE6F64"/>
<path d="M477.501 416.33H468.438L470.781 427.131H479.844L477.501 416.33Z" fill="#CE6F64"/>
<path d="M423.148 83.848C415.022 80.1488 412.457 63.7121 435.836 67.8182C435.836 67.8182 432.31 71.7147 439.461 74.1808C446.613 76.6469 440.633 91.8752 423.148 83.848Z" fill="#263238"/>
<path d="M440.805 96.1785C438.475 104.81 437.563 110.063 432.174 113.676C424.11 119.101 414.085 112.874 413.765 103.663C413.481 95.3894 417.34 82.5779 426.65 80.827C428.705 80.4241 430.829 80.5543 432.819 81.2054C434.809 81.8564 436.599 83.0065 438.019 84.5459C439.438 86.0854 440.44 87.9628 440.928 89.9992C441.415 92.0356 441.373 94.163 440.805 96.1785Z" fill="#E4897B"/>
<path d="M435.516 72.1339C441.052 75.2166 448.549 77.0661 447.846 81.4558C446.921 86.8196 452.371 83.4657 451.101 91.4436C450.275 96.6594 440.657 112.467 433.839 111.703C423.654 110.47 424.948 94.9825 424.911 86.8196C424.887 81.9984 424.665 66.0549 435.516 72.1339Z" fill="#263238"/>
<path d="M423.69 79.0514C421.224 79.6309 417.957 93.8481 427.513 95.1551C438.499 96.6471 423.69 79.0514 423.69 79.0514Z" fill="#263238"/>
<path d="M423.937 84.0946C420.916 84.3658 414.073 80.7283 414.911 75.2535C414.911 75.2166 419.239 81.6531 423.937 84.0946Z" fill="#263238"/>
<path d="M428.426 96.2895C427.498 98.3225 425.925 99.9917 423.95 101.037C421.348 102.393 419.88 100.42 420.472 97.8062C421.002 95.4634 423 91.9245 425.676 91.6409C428.352 91.3573 429.498 93.8234 428.426 96.2895Z" fill="#E4897B"/>
<path d="M441.989 86.3141C443.832 85.5144 445.448 84.2702 446.691 82.6928C447.935 81.1154 448.768 79.2542 449.116 77.2758C449.116 77.2758 453.185 88.5829 441.989 86.3141Z" fill="#263238"/>
<path d="M452.273 86.1291C451.415 85.5528 450.427 85.1982 449.399 85.0971C448.37 84.996 447.333 85.1514 446.379 85.5496C446.379 85.5496 450.177 80.6297 452.273 86.1291Z" fill="#263238"/>
<path d="M421.175 206.882C421.175 206.882 431.459 276.106 437.094 302.038C443.259 330.398 466.564 425.047 466.564 425.047H483.148C483.148 425.047 467.797 332.728 464.27 304.565C460.448 274.047 452.433 206.833 452.433 206.833L421.175 206.882Z" fill="#007E85"/>
<path opacity="0.5" d="M421.175 206.882C421.175 206.882 431.459 276.106 437.094 302.038C443.259 330.398 466.564 425.047 466.564 425.047H483.148C483.148 425.047 467.797 332.728 464.27 304.565C460.448 274.047 452.433 206.833 452.433 206.833L421.175 206.882Z" fill="white"/>
<path d="M463.913 418.931C463.839 418.931 465.627 425.306 465.627 425.306H484.296L483.951 419.622L463.913 418.931Z" fill="#007E85"/>
<path opacity="0.1" d="M463.913 418.931C463.839 418.931 465.627 425.306 465.627 425.306H484.296L483.951 419.622L463.913 418.931Z" fill="black"/>
<path d="M427.674 231.544C439.56 233.874 438.303 278.203 436.872 301.002C433.444 284.886 428.426 253.874 424.998 231.864C425.827 231.456 426.771 231.342 427.674 231.544Z" fill="#007E85"/>
<path opacity="0.4" d="M427.674 231.544C439.56 233.874 438.303 278.203 436.872 301.002C433.444 284.886 428.426 253.874 424.998 231.864C425.827 231.456 426.771 231.342 427.674 231.544Z" fill="white"/>
<path d="M403.986 206.882C403.986 206.882 402.753 274.602 403.727 302.235C404.751 330.965 414.825 425.047 414.825 425.047H430.164C430.164 425.047 430.731 332.642 431.397 304.43C432.149 273.665 435.861 206.882 435.861 206.882H403.986Z" fill="#007E85"/>
<path opacity="0.5" d="M403.986 206.882C403.986 206.882 402.753 274.602 403.727 302.235C404.751 330.965 414.825 425.047 414.825 425.047H430.164C430.164 425.047 430.731 332.642 431.397 304.43C432.149 273.665 435.861 206.882 435.861 206.882H403.986Z" fill="white"/>
<path d="M418.006 414.024C417.969 414.024 417.933 414.01 417.905 413.985C417.878 413.96 417.861 413.925 417.858 413.888C415.145 387.846 408.77 324.837 407.993 302.235C407.167 279.164 407.919 227.401 408.166 212.086C408.166 212.047 408.182 212.009 408.209 211.981C408.237 211.954 408.275 211.938 408.314 211.938C408.355 211.938 408.394 211.953 408.423 211.981C408.453 212.008 408.471 212.046 408.474 212.086C408.228 227.401 407.476 279.164 408.302 302.223C409.103 324.824 415.478 387.809 418.166 413.851C418.167 413.893 418.152 413.934 418.125 413.965C418.097 413.997 418.06 414.018 418.018 414.024H418.006Z" fill="#007E85"/>
<path opacity="0.4" d="M418.006 414.024C417.969 414.024 417.933 414.01 417.905 413.985C417.878 413.96 417.861 413.925 417.858 413.888C415.145 387.846 408.77 324.837 407.993 302.235C407.167 279.164 407.919 227.401 408.166 212.086C408.166 212.047 408.182 212.009 408.209 211.981C408.237 211.954 408.275 211.938 408.314 211.938C408.355 211.938 408.394 211.953 408.423 211.981C408.453 212.008 408.471 212.046 408.474 212.086C408.228 227.401 407.476 279.164 408.302 302.223C409.103 324.824 415.478 387.809 418.166 413.851C418.167 413.893 418.152 413.934 418.125 413.965C418.097 413.997 418.06 414.018 418.018 414.024H418.006Z" fill="white"/>
<path d="M411.841 418.931C411.779 418.931 412.716 425.306 412.716 425.306H431.372L431.878 419.622L411.841 418.931Z" fill="#007E85"/>
<path opacity="0.1" d="M411.841 418.931C411.779 418.931 412.716 425.306 412.716 425.306H431.372L431.878 419.622L411.841 418.931Z" fill="black"/>
</svg>
