<svg width="95" height="25" viewBox="0 0 95 25" fill="none" xmlns="http://www.w3.org/2000/svg">
<path d="M0.39585 18.5693C1.18985 16.3304 4.16734 14.6045 5.55684 14.0215C11.9088 11.2229 22.1315 9.82343 26.3993 10.5231C30.667 11.2229 26.0023 12.6221 21.933 14.0214C17.8638 15.4208 20.8413 16.1204 24.5135 15.4208C28.1858 14.7211 35.828 14.0214 42.3785 13.6716C48.929 13.3218 42.2792 12.6221 35.828 12.6221C29.3768 12.6221 29.476 11.2228 31.7588 10.5231C34.0415 9.82348 39.2025 7.02482 45.2567 7.37465C51.311 7.72448 63.1341 8.83831 70.8862 7.37466C79.1288 5.81843 88.7446 2.89585 91.7675 0.730851C96.1635 -2.41759 97.2625 5.30968 87.3714 10.5233C81.602 13.5643 74.1384 16.8201 49.326 15.7706C24.5135 14.7211 5.65607 20.6683 3.67108 23.1171C1.68608 25.566 0.296586 25.566 1.09058 23.467C1.88458 21.368 2.0831 21.0181 1.2891 21.7178C0.4951 22.4175 -0.596647 21.368 0.39585 18.5693Z" fill="#EFAA6C"/>
</svg>
