<svg width="378" height="382" viewBox="0 0 378 382" fill="none" xmlns="http://www.w3.org/2000/svg">
<path d="M78.3814 245.529L71.1728 246.834L69.7568 239.024L61.1923 240.578L62.6083 248.387L55.4082 249.691L57.013 258.556L64.213 257.252L65.629 265.061L74.1936 263.516L72.7776 255.699L79.9862 254.394L78.3814 245.529Z" stroke="#007E85" stroke-linecap="round" stroke-linejoin="round"/>
<path d="M150.348 125.9L143.439 123.463L146.083 115.98L137.878 113.079L135.235 120.562L128.327 118.125L125.332 126.621L132.232 129.058L129.589 136.55L137.793 139.442L140.444 131.959L147.344 134.396L150.348 125.9Z" stroke="#007E85" stroke-linecap="round" stroke-linejoin="round"/>
<path d="M324.59 215.339L318.12 218.763L314.404 211.743L306.706 215.811L310.422 222.83L303.951 226.255L308.165 234.218L314.635 230.794L318.351 237.806L326.049 233.738L322.333 226.718L328.804 223.294L324.59 215.339Z" stroke="#007E85" stroke-linecap="round" stroke-linejoin="round"/>
<path d="M48.2774 226.924C51.178 226.924 53.5294 224.573 53.5294 221.672C53.5294 218.771 51.178 216.42 48.2774 216.42C45.3768 216.42 43.0254 218.771 43.0254 221.672C43.0254 224.573 45.3768 226.924 48.2774 226.924Z" stroke="#007E85" stroke-linecap="round" stroke-linejoin="round"/>
<path d="M130.087 151.457C130.087 151.732 130.006 152 129.853 152.229C129.7 152.458 129.483 152.636 129.229 152.741C128.975 152.846 128.695 152.874 128.426 152.82C128.156 152.767 127.908 152.634 127.714 152.44C127.519 152.245 127.387 151.998 127.333 151.728C127.28 151.458 127.307 151.179 127.412 150.925C127.518 150.671 127.696 150.453 127.925 150.301C128.153 150.148 128.422 150.066 128.697 150.066C129.066 150.066 129.419 150.213 129.68 150.474C129.941 150.734 130.087 151.088 130.087 151.457Z" stroke="#007E85" stroke-linecap="round" stroke-linejoin="round"/>
<path d="M66.4698 127.608C66.4698 128.579 66.1819 129.528 65.6425 130.335C65.1032 131.142 64.3365 131.772 63.4396 132.143C62.5426 132.515 61.5556 132.612 60.6034 132.422C59.6512 132.233 58.7766 131.765 58.0901 131.079C57.4036 130.392 56.9361 129.518 56.7467 128.566C56.5573 127.613 56.6545 126.626 57.026 125.729C57.3975 124.833 58.0267 124.066 58.8339 123.526C59.6412 122.987 60.5902 122.699 61.5611 122.699C62.8623 122.701 64.1095 123.219 65.0296 124.139C65.9496 125.06 66.4675 126.307 66.4698 127.608Z" stroke="#007E85" stroke-linecap="round" stroke-linejoin="round"/>
<path d="M282.754 194.099C282.754 194.649 282.591 195.186 282.286 195.644C281.98 196.101 281.546 196.457 281.038 196.668C280.53 196.878 279.971 196.933 279.431 196.826C278.892 196.719 278.397 196.454 278.008 196.065C277.619 195.676 277.354 195.181 277.247 194.641C277.139 194.102 277.195 193.543 277.405 193.035C277.615 192.527 277.972 192.093 278.429 191.787C278.886 191.482 279.424 191.318 279.974 191.318C280.711 191.318 281.418 191.611 281.94 192.133C282.461 192.654 282.754 193.362 282.754 194.099Z" stroke="#007E85" stroke-linecap="round" stroke-linejoin="round"/>
<path d="M254.649 109.355C258.086 109.355 260.871 106.569 260.871 103.133C260.871 99.6968 258.086 96.9113 254.649 96.9113C251.213 96.9113 248.428 99.6968 248.428 103.133C248.428 106.569 251.213 109.355 254.649 109.355Z" stroke="#007E85" stroke-linecap="round" stroke-linejoin="round"/>
<path d="M216.341 159.06C216.667 159.549 226.51 161.514 231.616 168.937C234.587 173.202 237.079 177.781 239.048 182.591C239.048 182.591 247.587 187.671 251.964 191.859C256.34 196.047 261.558 201.608 265.583 204.526C269.608 207.443 277.889 212.979 279.974 219.458C279.974 219.458 267.557 253.467 264.047 260.985C260.537 268.502 251.878 284.456 251.878 284.456L236.431 350.08H146.829L143.774 327.57C143.774 327.57 116.313 322.181 104.839 312.123C104.839 312.123 103.757 287.236 108.555 265.035C113.352 242.834 129.666 196.673 140.719 182.574C140.719 182.574 158.371 174.129 173.947 171.417C173.947 171.417 184.057 163.428 190.673 162.578C197.29 161.729 216.341 159.06 216.341 159.06Z" fill="white"/>
<path d="M144.985 337.714C152.941 339.233 159.875 340.546 167.976 340.451C176.077 340.357 184.35 338.538 190.975 333.895C192.255 332.83 193.705 331.988 195.266 331.406C198.784 330.419 202.268 332.745 205.761 333.826C210.189 335.199 215.046 334.547 219.389 332.899C223.731 331.252 227.636 328.686 231.506 326.129C230.934 334.024 230.748 341.933 230.948 349.857L236.466 350.08L250.6 287.888C250.6 287.888 226.426 315.968 214.643 324.352L192.039 318.534C192.039 318.534 189.911 320.302 185.431 321.194C185.431 321.194 183.38 329.081 171.846 329.098C160.312 329.115 143.775 327.57 143.775 327.57L144.985 337.714Z" fill="#007E85"/>
<path opacity="0.5" d="M144.985 337.714C152.941 339.233 159.875 340.546 167.976 340.451C176.077 340.357 184.35 338.538 190.975 333.895C192.255 332.83 193.705 331.988 195.266 331.406C198.784 330.419 202.268 332.745 205.761 333.826C210.189 335.199 215.046 334.547 219.389 332.899C223.731 331.252 227.636 328.686 231.506 326.129C230.934 334.024 230.748 341.933 230.948 349.857L236.466 350.08L250.6 287.888C250.6 287.888 226.426 315.968 214.643 324.352L192.039 318.534C192.039 318.534 189.911 320.302 185.431 321.194C185.431 321.194 183.38 329.081 171.846 329.098C160.312 329.115 143.775 327.57 143.775 327.57L144.985 337.714Z" fill="white"/>
<path d="M121.822 221.672C121.822 221.672 111.326 272.622 111.858 290.12C111.858 290.12 126.121 286.121 136.076 290.12C136.076 290.12 119.136 288.232 111.841 295.998C104.547 303.765 126.997 324.172 171.913 320.027C171.913 320.027 180.873 322.833 185.421 321.185C185.421 321.185 184.202 329.304 171.836 329.089C159.521 328.6 123.495 328.3 104.83 312.132C104.839 312.14 102.487 265.301 121.822 221.672Z" fill="#007E85"/>
<path opacity="0.6" d="M121.822 221.672C121.822 221.672 111.326 272.622 111.858 290.12C111.858 290.12 126.121 286.121 136.076 290.12C136.076 290.12 119.136 288.232 111.841 295.998C104.547 303.765 126.997 324.172 171.913 320.027C171.913 320.027 180.873 322.833 185.421 321.185C185.421 321.185 184.202 329.304 171.836 329.089C159.521 328.6 123.495 328.3 104.83 312.132C104.839 312.14 102.487 265.301 121.822 221.672Z" fill="white"/>
<path d="M143.285 231.438C143.285 231.438 146.383 253.999 151.386 258.719C156.389 263.439 179.706 261.894 188.94 266.983C188.94 266.983 197.633 251.923 213.355 242.5L192.038 276.063L173.613 271.712L151.12 268.279L149.232 272.622H145.851C145.851 272.622 145.473 248.541 143.285 231.438Z" fill="#007E85"/>
<path opacity="0.5" d="M143.285 231.438C143.285 231.438 146.383 253.999 151.386 258.719C156.389 263.439 179.706 261.894 188.94 266.983C188.94 266.983 197.633 251.923 213.355 242.5L192.038 276.063L173.613 271.712L151.12 268.279L149.232 272.622H145.851C145.851 272.622 145.473 248.541 143.285 231.438Z" fill="white"/>
<path d="M231.411 185.483C241.048 191.155 242.13 197.549 244.112 202.114C239.1 203.11 233.917 204.174 229.781 207.169C224.632 210.911 221.843 217.107 219.68 223.122C217.634 228.815 215.915 234.62 214.531 240.509C219.189 232.094 225.81 224.928 233.831 219.621C238.457 216.566 244.172 214.103 249.45 215.828C245.022 217.707 240.01 220.247 239.075 224.967C238.891 225.751 238.923 226.57 239.169 227.336C239.959 229.559 242.722 230.159 244.816 231.241C248.901 233.343 251.029 238.106 251.209 242.723C251.389 247.34 249.973 251.802 248.575 256.17C247.344 259.998 246.114 263.825 244.884 267.653C243.314 272.544 241.718 277.505 238.877 281.795C236.037 286.086 231.772 289.682 226.7 290.523C224.579 290.932 222.385 290.684 220.409 289.811C218.912 288.997 217.52 288.003 216.264 286.85C210.18 281.936 202.868 278.779 195.119 277.719C205.091 284.31 209.811 296.281 213.947 307.498C212.048 304.173 209.311 301.404 206.009 299.465C205.163 298.876 204.157 298.559 203.126 298.556C200.414 298.77 199.556 302.228 197.925 304.391C195.969 306.966 192.39 307.884 189.181 307.472C185.971 307.06 183.019 305.558 180.135 304.039L143.655 285.228L141.08 292.952C141.08 292.952 170.138 316.122 214.66 324.318C214.66 324.318 243.58 301.465 253.827 281.203C264.073 260.942 279.992 219.415 279.992 219.415C279.992 219.415 274.165 208.379 264.176 202.621C264.176 202.621 256.719 199.094 255.148 194.734C253.578 190.375 239.564 182.848 239.564 182.848C239.564 182.848 241.383 187.5 231.411 185.483Z" fill="#007E85"/>
<path opacity="0.6" d="M231.411 185.483C241.048 191.155 242.13 197.549 244.112 202.114C239.1 203.11 233.917 204.174 229.781 207.169C224.632 210.911 221.843 217.107 219.68 223.122C217.634 228.815 215.915 234.62 214.531 240.509C219.189 232.094 225.81 224.928 233.831 219.621C238.457 216.566 244.172 214.103 249.45 215.828C245.022 217.707 240.01 220.247 239.075 224.967C238.891 225.751 238.923 226.57 239.169 227.336C239.959 229.559 242.722 230.159 244.816 231.241C248.901 233.343 251.029 238.106 251.209 242.723C251.389 247.34 249.973 251.802 248.575 256.17C247.344 259.998 246.114 263.825 244.884 267.653C243.314 272.544 241.718 277.505 238.877 281.795C236.037 286.086 231.772 289.682 226.7 290.523C224.579 290.932 222.385 290.684 220.409 289.811C218.912 288.997 217.52 288.003 216.264 286.85C210.18 281.936 202.868 278.779 195.119 277.719C205.091 284.31 209.811 296.281 213.947 307.498C212.048 304.173 209.311 301.404 206.009 299.465C205.163 298.876 204.157 298.559 203.126 298.556C200.414 298.77 199.556 302.228 197.925 304.391C195.969 306.966 192.39 307.884 189.181 307.472C185.971 307.06 183.019 305.558 180.135 304.039L143.655 285.228L141.08 292.952C141.08 292.952 170.138 316.122 214.66 324.318C214.66 324.318 243.58 301.465 253.827 281.203C264.073 260.942 279.992 219.415 279.992 219.415C279.992 219.415 274.165 208.379 264.176 202.621C264.176 202.621 256.719 199.094 255.148 194.734C253.578 190.375 239.564 182.848 239.564 182.848C239.564 182.848 241.383 187.5 231.411 185.483Z" fill="white"/>
<path d="M228.348 106.488C228.348 106.488 230.296 83.7726 220.505 81.6014C210.713 79.4302 205.212 70.4452 205.212 70.4452L170.473 80.1425L165.084 101.03L168.517 111.603C168.517 111.603 169.238 121.412 169.375 126.261C169.512 131.109 169.375 134.842 173.048 140.729C176.721 146.616 180.136 152.461 188.074 157.55V170.928C188.074 170.928 183.166 185.251 185.877 194.039C185.877 194.039 187.499 195.755 191.979 193.181C196.459 190.606 215.622 177.802 222.307 164.432L224.384 130.44C224.384 130.44 229.902 131.298 232.279 126.269C235.771 121.352 235.634 115.619 234.278 110.951C232.922 106.282 227.087 109.303 227.087 109.303L228.348 106.488Z" fill="white"/>
<path d="M188.451 139.794C189.433 138.724 190.644 137.89 191.993 137.352C193.342 136.814 194.795 136.587 196.243 136.687C196.243 136.687 200.423 130.088 204.825 131.298C204.825 131.298 206.181 138.292 200.903 141.047C194.038 144.626 188.451 139.794 188.451 139.794Z" fill="white"/>
<path d="M175.545 77.2505C175.545 77.2505 167.229 88.175 167.71 99.5629C168.19 110.951 169.846 119.026 169.366 127.814C168.885 136.602 178.153 151.319 187.653 157.249C194.75 161.686 203.65 160.931 210.558 156.391C218.282 151.242 222.529 141.991 224.083 133.109C224.237 132.251 224.357 131.392 224.443 130.466" stroke="#263238" stroke-linecap="round" stroke-linejoin="round"/>
<path d="M187.652 157.258C187.652 157.258 188.999 169.564 187.652 173.777C186.167 178.403 184.374 189.173 185.936 194.039C187.497 198.905 216.718 178.455 222.365 164.423C222.365 164.423 223.146 137.159 225.094 130.345" stroke="#263238" stroke-linecap="round" stroke-linejoin="round"/>
<path d="M186.846 139.494C186.846 139.494 200.139 143.252 205.58 129.53" stroke="#263238" stroke-linecap="round" stroke-linejoin="round"/>
<path d="M187.918 160.218C187.918 160.218 190.75 168.997 196.86 169.521C202.97 170.044 218.254 157.798 223.463 143.372V136.155C223.463 136.155 219.173 155.035 206.609 158.468C194.045 161.9 188.167 157.532 188.167 157.532L187.918 160.218Z" fill="#263238"/>
<path d="M204.815 131.298C198.911 130.886 196.234 136.687 196.234 136.687C194.778 136.51 193.302 136.701 191.94 137.244C190.579 137.787 189.375 138.664 188.441 139.794C189.896 141.099 191.684 141.974 193.607 142.323C195.53 142.671 197.512 142.479 199.332 141.768C206.042 139.433 204.815 131.298 204.815 131.298Z" stroke="#263238" stroke-linecap="round" stroke-linejoin="round"/>
<path d="M190.014 105.416C190.087 108.138 189.966 110.863 189.653 113.568C189.336 115.997 188.211 118.323 187.276 120.605C186.418 122.682 184.985 125.874 186.178 128.063C187.534 130.543 192.039 128.063 192.039 128.063" stroke="#263238" stroke-linecap="round" stroke-linejoin="round"/>
<path d="M194.811 127.548C196.33 127.754 198.484 127.548 198.913 124.913" stroke="#263238" stroke-linecap="round" stroke-linejoin="round"/>
<path d="M199.719 102.138C201.187 100.737 203.139 99.9553 205.168 99.9553C207.198 99.9553 209.149 100.737 210.618 102.138" stroke="#263238" stroke-width="2" stroke-linecap="round" stroke-linejoin="round"/>
<path d="M182.401 104.283C182.401 104.283 178.377 99.1338 173.107 104.283" stroke="#263238" stroke-width="2" stroke-linecap="round" stroke-linejoin="round"/>
<path d="M221.283 117.301C221.283 117.301 225.874 106.274 231.864 108.642C235.992 110.282 236.241 117.404 234.053 122.373C231.864 127.342 230.766 132.405 223.472 129.573" stroke="#263238" stroke-linecap="round" stroke-linejoin="round"/>
<path d="M222.101 115.611C222.101 115.611 217.69 114.049 216.874 106.883C216.059 99.7174 220.453 92.5431 218.823 87.3941C217.192 82.2451 204.345 84.8196 201.419 75.8431C201.419 75.8431 191.773 83.0346 173.099 81.4899C173.099 81.4899 169.16 88.2008 168.474 92.3028C167.554 98.7166 167.577 105.23 168.542 111.637C168.542 111.861 168.62 112.075 168.662 112.298C170.001 119.284 163.333 102.79 163.513 95.7441C163.694 88.6985 159.446 79.7478 164.981 73.0798C170.516 66.4118 190.812 62.5071 194.811 59.3748C198.81 56.2425 206.585 64.5839 215.57 67.6562C224.555 70.7284 232.004 74.3928 230.871 87.1366C229.738 99.8805 230.931 101.588 230.983 108.299C230.983 108.316 226.829 106.754 222.101 115.611Z" fill="#263238"/>
<path d="M205.185 111.423C205.185 113.139 204.525 114.564 203.701 114.564C202.877 114.564 202.225 113.156 202.225 111.423C202.225 109.689 202.885 108.291 203.701 108.291C204.516 108.291 205.185 109.707 205.185 111.423Z" fill="#263238"/>
<path d="M182.401 111.423C182.401 113.139 181.741 114.564 180.925 114.564C180.11 114.564 179.449 113.156 179.449 111.423C179.449 109.689 180.11 108.291 180.925 108.291C181.741 108.291 182.401 109.707 182.401 111.423Z" fill="#263238"/>
<path d="M199.719 115.611C199.719 115.611 202.782 118.863 206.661 119.327" stroke="#263238" stroke-linecap="round" stroke-linejoin="round"/>
<path d="M178.848 119.327C178.848 119.327 184.452 118.932 185.713 115.611" stroke="#263238" stroke-linecap="round" stroke-linejoin="round"/>
<path d="M191.875 196.124C196.046 193.472 201.564 194.468 206.129 196.347C208.635 197.386 211.021 198.69 213.518 199.78C214.753 200.326 216.026 200.779 217.328 201.136C220.461 201.951 219.336 198.064 219.156 196.322C218.899 193.824 218.719 191.318 218.418 188.838C218.295 188.325 218.356 187.784 218.59 187.311C218.898 186.929 219.328 186.665 219.808 186.564C225.309 184.848 231.239 185.603 236.972 185.706C237.492 185.768 238.019 185.669 238.482 185.423C239.34 184.865 239.246 183.603 239.014 182.608C237.032 174.129 230.038 165.693 222.434 161.454" stroke="#263238" stroke-linecap="round" stroke-linejoin="round"/>
<path d="M188.133 162.827C184.349 164.406 180.461 166.045 177.2 168.465C176.017 169.328 174.927 170.312 173.948 171.4C173.159 172.151 172.663 173.158 172.549 174.241C172.57 174.745 172.703 175.237 172.94 175.683C173.176 176.128 173.508 176.515 173.913 176.815C174.489 177.29 175.124 177.688 175.801 178C177.38 178.746 179.234 179.476 179.903 181.063C180.066 181.396 180.126 181.769 180.075 182.136C179.99 182.458 179.824 182.753 179.594 182.994C178.29 184.582 175.99 185.809 176.162 187.86C176.273 189.448 177.878 190.435 179.303 191.138C180.727 191.842 182.392 192.571 182.881 194.09" stroke="#263238" stroke-linecap="round" stroke-linejoin="round"/>
<path d="M165.727 82.3566C166.284 78.9239 169.872 76.7098 173.321 76.152C176.771 75.5942 180.315 76.152 183.791 75.8516C186.698 75.5644 189.509 74.6565 192.035 73.1894C194.561 71.7222 196.742 69.7299 198.431 67.3472" stroke="white" stroke-linecap="round" stroke-linejoin="round"/>
<path d="M169.631 72.7108C175.861 69.0293 184.615 72.8567 190.69 68.9263C192.41 67.6745 193.907 66.1428 195.119 64.3951" stroke="white" stroke-linecap="round" stroke-linejoin="round"/>
<path d="M249.105 213.545C226.793 217.999 218.469 234.416 218.469 234.416L192.037 276.046" stroke="#263238" stroke-linecap="round" stroke-linejoin="round"/>
<path d="M230.244 209.048C232.095 207.333 234.192 205.905 236.466 204.809" stroke="#263238" stroke-linecap="round" stroke-linejoin="round"/>
<path d="M214.643 240.475C214.643 240.475 217.457 225.439 225.541 214.36" stroke="#263238" stroke-linecap="round" stroke-linejoin="round"/>
<path d="M145.852 272.553C145.852 272.553 144.694 226.495 140.703 219.458" stroke="#263238" stroke-linecap="round" stroke-linejoin="round"/>
<path d="M239.048 182.591C239.048 182.591 251.921 190.314 257.636 197.574C263.352 204.835 276.859 209.658 279.949 219.458C279.949 219.458 262.159 275.514 243.519 295.775C224.88 316.036 214.616 324.352 214.616 324.352C214.616 324.352 169.777 316.56 140.693 292.136L151.094 268.236C151.094 268.236 180.418 271.944 192.012 276.063C203.606 280.182 214.616 305.129 214.616 305.129" stroke="#263238" stroke-linecap="round" stroke-linejoin="round"/>
<path d="M192.037 276.063C192.037 276.063 212.565 280.053 219.233 289.399" stroke="#263238" stroke-linecap="round" stroke-linejoin="round"/>
<path d="M251.107 285.674L236.466 350.08H146.83L143.775 327.57" stroke="#263238" stroke-linecap="round" stroke-linejoin="round"/>
<path d="M185.43 321.194C180.478 331.338 173.948 329.098 173.948 329.098C123.444 331.012 104.839 312.14 104.839 312.14C104.839 312.14 102.265 285.597 112.194 249.777C122.123 213.957 140.719 182.591 140.719 182.591C148.966 177.107 167.366 172.825 172.558 171.692L173.948 171.4" stroke="#263238" stroke-linecap="round" stroke-linejoin="round"/>
<path d="M173.974 329.098C173.974 329.098 171.305 328.66 171.983 310.965" stroke="#263238" stroke-linecap="round" stroke-linejoin="round"/>
<path d="M142.084 293.269C142.084 293.269 129.469 288.824 113.842 299.637" stroke="#263238" stroke-linecap="round" stroke-linejoin="round"/>
<path d="M116.674 289.399C116.674 289.399 133.202 284.481 140.703 292.359" stroke="#263238" stroke-linecap="round" stroke-linejoin="round"/>
<path d="M138.916 291.913L141.062 292.986L149.231 272.579C149.231 272.579 140.77 271.197 127.365 287.888C131.551 287.937 135.607 289.35 138.916 291.913Z" fill="white" stroke="#263238" stroke-miterlimit="10"/>
<path d="M171.957 310.965V320.035C171.957 320.035 183.517 323.468 192.073 318.534L171.957 310.965Z" fill="white" stroke="#263238" stroke-miterlimit="10"/>
<path d="M234.613 185.612C234.621 185.779 234.604 185.947 234.561 186.109C234.201 187.525 225.388 220.797 197.179 235.6C196.934 235.732 196.66 235.799 196.381 235.798C195.998 235.797 195.625 235.669 195.324 235.432C195.022 235.195 194.808 234.865 194.716 234.492C194.624 234.12 194.66 233.728 194.817 233.378C194.974 233.028 195.244 232.741 195.583 232.562C221.328 219.063 230.399 188.298 231.189 185.466L234.613 185.612Z" fill="#263238"/>
<path d="M173.913 176.79C169.454 186.975 167.048 197.94 166.833 209.057C166.833 209.958 166.833 210.876 166.833 211.812C166.833 212.043 166.833 212.275 166.833 212.507C166.577 212.515 166.322 212.541 166.069 212.584C165.141 212.73 164.24 213.02 163.4 213.442C163.4 212.181 163.4 210.953 163.4 209.743C163.769 190.486 169.519 177.382 172.583 171.718L173.973 171.426C173.184 172.177 172.688 173.184 172.574 174.267C172.6 174.759 172.733 175.241 172.964 175.676C173.195 176.112 173.519 176.492 173.913 176.79Z" fill="#263238"/>
<path d="M207.709 227.859C209.717 230.648 208.069 235.282 204.018 238.209C199.968 241.135 195.059 241.238 193.042 238.449C191.026 235.66 192.673 231.026 196.724 228.1C200.775 225.173 205.726 225.07 207.709 227.859Z" fill="white" stroke="#263238" stroke-linecap="round" stroke-linejoin="round"/>
<path d="M202.713 226.203C204.138 228.177 202.971 231.455 200.139 233.523C197.307 235.592 193.797 235.669 192.415 233.695C191.034 231.721 192.158 228.443 194.99 226.375C197.822 224.307 201.289 224.238 202.713 226.203Z" fill="white" stroke="#263238" stroke-linecap="round" stroke-linejoin="round"/>
<path d="M180.032 261.036C179.667 261.279 179.222 261.373 178.789 261.298C178.357 261.223 177.969 260.986 177.707 260.634C177.444 260.282 177.326 259.843 177.377 259.407C177.428 258.971 177.644 258.572 177.981 258.29C178.127 258.17 183.885 253.27 181.362 236.767C181.148 235.368 180.873 233.875 180.504 232.305C179.414 227.302 177.732 220.968 174.291 216.317C173.472 215.09 172.351 214.095 171.036 213.428C169.721 212.76 168.256 212.443 166.782 212.507C166.526 212.515 166.271 212.541 166.018 212.584C165.09 212.73 164.189 213.02 163.349 213.442C160.786 214.766 158.84 217.039 157.926 219.775L157.617 220.634C155.671 225.896 154.08 231.283 152.854 236.759C151.481 243.495 151.017 250.558 153.455 255.492C154.108 256.846 155.038 258.048 156.185 259.019C157.332 259.991 158.671 260.71 160.114 261.131C160.501 261.258 160.831 261.519 161.043 261.867C161.256 262.215 161.337 262.628 161.273 263.031C161.209 263.433 161.004 263.8 160.694 264.065C160.384 264.33 159.99 264.477 159.582 264.477C159.401 264.477 159.222 264.448 159.05 264.392C157.173 263.828 155.434 262.881 153.942 261.611C152.45 260.341 151.238 258.774 150.382 257.011C147.636 251.459 147.997 243.899 149.387 236.759C150.619 230.887 152.289 225.115 154.381 219.492L154.69 218.634C155.365 216.592 156.495 214.729 157.995 213.187C159.495 211.646 161.326 210.465 163.349 209.735C164.05 209.492 164.771 209.314 165.503 209.203C165.941 209.143 166.361 209.1 166.808 209.074C168.816 209.019 170.807 209.468 172.597 210.381C174.387 211.294 175.92 212.642 177.054 214.3C180.882 219.449 182.701 226.255 183.86 231.592C184.263 233.429 184.572 235.154 184.804 236.784C187.515 255.286 180.367 260.796 180.032 261.036Z" fill="#263238" stroke="#263238" stroke-miterlimit="10"/>
<path d="M158.381 264.177C158.381 264.177 164.602 266.752 166.181 264.177C167.76 261.603 166.482 260.393 164.328 260.187C162.181 260.077 160.03 260.077 157.883 260.187L158.381 264.177Z" fill="#263238" stroke="#263238" stroke-miterlimit="10"/>
<path d="M161.238 263.319C161.126 263.663 160.908 263.963 160.615 264.176C160.322 264.388 159.969 264.503 159.607 264.503C159.427 264.503 159.247 264.474 159.075 264.418C157.199 263.854 155.459 262.907 153.967 261.637C152.475 260.366 151.263 258.8 150.408 257.037C147.662 251.485 148.022 243.924 149.412 236.784H152.845C151.472 243.521 151.008 250.584 153.446 255.518C154.099 256.872 155.029 258.074 156.176 259.045C157.323 260.016 158.662 260.736 160.105 261.156C160.322 261.223 160.524 261.332 160.699 261.477C160.873 261.622 161.018 261.8 161.123 262.001C161.228 262.202 161.293 262.422 161.313 262.649C161.332 262.875 161.307 263.103 161.238 263.319Z" fill="white" stroke="#263238" stroke-linecap="round" stroke-linejoin="round"/>
<path d="M174.301 259.174C174.042 259.481 173.851 259.839 173.74 260.225C173.629 260.611 173.601 261.016 173.657 261.414C173.828 262.002 174.2 262.511 174.709 262.853C175.217 263.194 175.828 263.347 176.437 263.285C177.656 263.123 178.771 262.51 179.561 261.568C180.419 260.607 183.397 254.317 180.642 255.398C178.643 256.153 175.639 257.432 174.301 259.174Z" fill="#263238" stroke="#263238" stroke-miterlimit="10"/>
<path d="M180.032 261.036C179.666 261.279 179.222 261.373 178.789 261.298C178.357 261.223 177.969 260.986 177.706 260.634C177.444 260.282 177.326 259.843 177.377 259.407C177.428 258.971 177.644 258.572 177.981 258.29C178.127 258.17 183.885 253.27 181.362 236.767H184.795C187.515 255.287 180.367 260.796 180.032 261.036Z" fill="white" stroke="#263238" stroke-linecap="round" stroke-linejoin="round"/>
<path opacity="0.2" d="M195.428 109.355C195.428 109.355 206.232 103.742 216.161 109.355C216.161 109.355 216.324 117.636 212.574 121.043C211.244 122.253 205.151 122.459 202.842 122.253C193.471 121.403 195.428 109.355 195.428 109.355Z" fill="white"/>
<path opacity="0.2" d="M188.648 109.355C188.648 109.355 177.843 103.742 167.923 109.355C167.923 109.355 167.76 117.636 171.501 121.043C172.832 122.253 178.933 122.459 181.233 122.253C190.604 121.403 188.648 109.355 188.648 109.355Z" fill="white"/>
<path d="M195.428 109.355C195.428 109.355 206.232 103.742 216.161 109.355C216.161 109.355 216.324 117.636 212.574 121.043C211.244 122.253 205.151 122.459 202.842 122.253C193.471 121.403 195.428 109.355 195.428 109.355Z" stroke="#263238" stroke-miterlimit="10"/>
<path d="M188.648 109.355C188.648 109.355 177.843 103.742 167.923 109.355C167.923 109.355 167.76 117.636 171.501 121.043C172.832 122.253 178.933 122.459 181.233 122.253C190.604 121.403 188.648 109.355 188.648 109.355Z" stroke="#263238" stroke-miterlimit="10"/>
<path d="M188.648 109.355C188.648 109.355 191.068 107.578 195.428 109.355" stroke="#263238" stroke-miterlimit="10"/>
<path d="M216.16 109.355L220.674 111.449" stroke="#263238" stroke-miterlimit="10"/>
<path d="M43.377 372.925L75.1378 342.923H327.217L346.303 372.925H43.377Z" fill="white" stroke="#263238" stroke-linecap="round" stroke-linejoin="round"/>
<path d="M346.303 372.925H43.377V381H346.303V372.925Z" fill="#263238" stroke="#263238" stroke-linecap="round" stroke-linejoin="round"/>
<path d="M75.1387 365.51V359.288H124.913V365.51H115.31H75.1387Z" fill="white" stroke="#263238" stroke-miterlimit="10"/>
<path d="M75.1387 359.288L104.54 339.567L143.775 340.494L124.913 359.288H75.1387Z" fill="white" stroke="#263238" stroke-linecap="round" stroke-linejoin="round"/>
<path d="M124.912 365.51L143.775 346.613V340.494L124.912 359.288V365.51Z" fill="white" stroke="#263238" stroke-linecap="round" stroke-linejoin="round"/>
<path d="M123.565 357.718C123.565 357.718 119.592 358.507 119.592 361.949C119.592 365.39 123.024 366.403 123.024 366.403" stroke="#263238" stroke-width="2" stroke-linecap="round" stroke-linejoin="round"/>
<path d="M119.592 357.718C119.592 357.718 115.619 358.507 115.619 361.949C115.619 365.39 119.052 366.403 119.052 366.403" stroke="#263238" stroke-width="2" stroke-linecap="round" stroke-linejoin="round"/>
<path d="M115.62 357.718C115.62 357.718 111.646 358.507 111.646 361.949C111.646 365.39 115.079 366.403 115.079 366.403" stroke="#263238" stroke-width="2" stroke-linecap="round" stroke-linejoin="round"/>
<path d="M111.645 357.718C111.645 357.718 107.672 358.507 107.672 361.949C107.672 365.39 111.105 366.403 111.105 366.403" stroke="#263238" stroke-width="2" stroke-linecap="round" stroke-linejoin="round"/>
<path d="M107.673 357.718C107.673 357.718 103.699 358.507 103.699 361.949C103.699 365.39 107.132 366.403 107.132 366.403" stroke="#263238" stroke-width="2" stroke-linecap="round" stroke-linejoin="round"/>
<path d="M103.698 357.718C103.698 357.718 99.7246 358.507 99.7246 361.949C99.7246 365.39 103.157 366.403 103.157 366.403" stroke="#263238" stroke-width="2" stroke-linecap="round" stroke-linejoin="round"/>
<path d="M99.7253 357.718C99.7253 357.718 95.752 358.507 95.752 361.949C95.752 365.39 99.1846 366.403 99.1846 366.403" stroke="#263238" stroke-width="2" stroke-linecap="round" stroke-linejoin="round"/>
<path d="M95.7526 357.718C95.7526 357.718 91.7793 358.507 91.7793 361.949C91.7793 365.39 95.212 366.403 95.212 366.403" stroke="#263238" stroke-width="2" stroke-linecap="round" stroke-linejoin="round"/>
<path d="M91.2897 357.718C91.2897 357.718 87.3164 358.507 87.3164 361.949C87.3164 365.39 90.7491 366.403 90.7491 366.403" stroke="#263238" stroke-width="2" stroke-linecap="round" stroke-linejoin="round"/>
<path d="M86.819 357.718C86.819 357.718 82.8457 358.507 82.8457 361.949C82.8457 365.39 86.2784 366.403 86.2784 366.403" stroke="#263238" stroke-width="2" stroke-linecap="round" stroke-linejoin="round"/>
<path d="M81.8503 357.718C81.8503 357.718 77.877 358.507 77.877 361.949C77.877 365.39 81.3096 366.403 81.3096 366.403" stroke="#263238" stroke-width="2" stroke-linecap="round" stroke-linejoin="round"/>
<path d="M107.037 344.399C104.296 345.911 102.124 348.276 100.85 351.136C104.463 349.994 107.32 347.42 110.058 344.845L107.089 352.208C108.455 352.097 109.777 351.666 110.946 350.949C112.115 350.231 113.098 349.249 113.817 348.081C113.581 348.182 113.37 348.332 113.197 348.521C113.024 348.71 112.892 348.933 112.811 349.176C112.73 349.419 112.701 349.676 112.727 349.931C112.752 350.186 112.831 350.433 112.958 350.655C115.447 350.295 117.035 347.892 118.288 345.712C118.518 346.925 118.607 348.16 118.554 349.394C120.635 349.692 122.758 349.422 124.698 348.613" stroke="#263238" stroke-width="0.75" stroke-linecap="round" stroke-linejoin="round"/>
<path d="M325.536 312.87H239.023V360.37H325.536V312.87Z" fill="white" stroke="#263238" stroke-linecap="round" stroke-linejoin="round"/>
<path d="M238.688 360.361L224.777 347.136V299.637L238.688 312.87V360.361Z" fill="white" stroke="#263238" stroke-linecap="round" stroke-linejoin="round"/>
<path d="M325.536 312.87L311.625 299.637H225.121L239.023 312.87H325.536Z" fill="white" stroke="#263238" stroke-linecap="round" stroke-linejoin="round"/>
<path d="M293.721 330.685H286.075V322.687H275.296V330.685H266.955V341.464H275.296V349.453H286.075V341.464H293.721V330.685Z" fill="#007E85" stroke="#263238" stroke-miterlimit="10"/>
<path d="M281.528 312.87L267.617 299.637" stroke="#263238" stroke-linecap="round" stroke-linejoin="round"/>
<path d="M98.6655 110.989C108.756 100.898 108.756 84.5376 98.6655 74.4466C88.5745 64.3556 72.2138 64.3556 62.1229 74.4466C52.0319 84.5376 52.0319 100.898 62.1229 110.989C72.2138 121.08 88.5745 121.08 98.6655 110.989Z" fill="white" stroke="#263238" stroke-linecap="round" stroke-linejoin="round"/>
<path d="M101.887 88.7585C101.887 90.4882 101.345 92.1743 100.336 93.5797C99.3282 94.9852 97.9048 96.0392 96.2663 96.5936L84.724 100.481L70.6757 105.227C68.6062 105.907 66.3517 105.742 64.4035 104.767C62.4553 103.793 60.9713 102.087 60.2749 100.023C59.5786 97.959 59.7263 95.7033 60.6859 93.7476C61.6455 91.7919 63.3393 90.2947 65.398 89.5824L78.1589 85.2915L90.98 81.0007C92.2204 80.5835 93.5421 80.4668 94.8364 80.6603C96.1306 80.8537 97.3605 81.3518 98.4246 82.1134C99.4888 82.8751 100.357 83.8786 100.957 85.0413C101.558 86.2041 101.874 87.4928 101.879 88.8014L101.887 88.7585Z" fill="white"/>
<path d="M101.887 88.7586C101.886 90.4883 101.344 92.1744 100.336 93.5798C99.3274 94.9852 97.904 96.0392 96.2656 96.5937L84.7232 100.481C84.4154 94.7948 82.0873 89.4051 78.1582 85.283L90.9793 80.9921C92.2196 80.5749 93.5414 80.4583 94.8356 80.6517C96.1299 80.8452 97.3597 81.3432 98.4239 82.1049C99.488 82.8666 100.356 83.8701 100.957 85.0328C101.557 86.1955 101.873 87.4843 101.878 88.7929L101.887 88.7586Z" fill="#FFDC60"/>
<path d="M101.887 88.7585C101.887 90.4882 101.345 92.1743 100.336 93.5797C99.3282 94.9852 97.9048 96.0392 96.2664 96.5936L84.724 100.481L70.6757 105.227C68.6062 105.907 66.3517 105.742 64.4035 104.767C62.4553 103.793 60.9713 102.087 60.2749 100.023C59.5786 97.959 59.7263 95.7033 60.6859 93.7476C61.6455 91.7919 63.3393 90.2947 65.398 89.5824L78.1589 85.2915L90.98 81.0007C92.2204 80.5835 93.5421 80.4668 94.8364 80.6603C96.1306 80.8537 97.3605 81.3518 98.4246 82.1134C99.4888 82.8751 100.357 83.8786 100.957 85.0413C101.558 86.2041 101.874 87.4928 101.879 88.8014L101.887 88.7585Z" stroke="#263238" stroke-linecap="round" stroke-linejoin="round"/>
<path d="M84.7232 100.481C84.4606 94.7842 82.1259 89.3795 78.1582 85.283" stroke="#263238" stroke-linecap="round" stroke-linejoin="round"/>
<path d="M99.123 85.6777C99.6649 86.5904 99.9385 87.6374 99.9126 88.6985" stroke="white" stroke-linecap="round" stroke-linejoin="round"/>
<path d="M81.4199 86.5358L91.718 83.1032C92.6416 82.7864 93.624 82.6783 94.5945 82.7866C95.5649 82.895 96.4993 83.217 97.3304 83.7296" stroke="white" stroke-linecap="round" stroke-linejoin="round"/>
<path d="M255.966 57.6634C269.108 52.1011 275.253 36.9382 269.691 23.796C264.128 10.6539 248.965 4.50916 235.823 10.0714C222.681 15.6337 216.536 30.7966 222.099 43.9388C227.661 57.0809 242.824 63.2256 255.966 57.6634Z" fill="white" stroke="#263238" stroke-linecap="round" stroke-linejoin="round"/>
<path d="M254.804 44.6828L232.269 37.1395C230.395 36.5095 228.848 35.1613 227.968 33.3912C227.087 31.6211 226.946 29.5739 227.574 27.6996C228.204 25.8257 229.553 24.2787 231.323 23.3985C233.093 22.5182 235.14 22.3768 237.014 23.0054L259.55 30.5401C261.422 31.172 262.968 32.5205 263.848 34.29C264.728 36.0595 264.87 38.1056 264.244 39.98C263.614 41.8541 262.266 43.4016 260.497 44.2833C258.727 45.1649 256.68 45.3086 254.804 44.6828Z" fill="#FFDC60"/>
<path d="M238.293 36.5389L242.069 27.5195" stroke="#263238" stroke-linecap="round" stroke-linejoin="round"/>
<path d="M250.711 40.6667L254.47 31.6731" stroke="#263238" stroke-linecap="round" stroke-linejoin="round"/>
<path d="M241.408 37.0709C241.83 37.0709 242.172 36.7289 242.172 36.3071C242.172 35.8853 241.83 35.5433 241.408 35.5433C240.986 35.5433 240.645 35.8853 240.645 36.3071C240.645 36.7289 240.986 37.0709 241.408 37.0709Z" fill="#263238"/>
<path d="M248.916 38.5555C248.916 38.7066 248.871 38.8542 248.788 38.9799C248.704 39.1055 248.584 39.2033 248.445 39.2612C248.305 39.319 248.152 39.3341 248.003 39.3046C247.855 39.2751 247.719 39.2024 247.612 39.0956C247.506 38.9888 247.433 38.8527 247.403 38.7045C247.374 38.5564 247.389 38.4028 247.447 38.2632C247.505 38.1237 247.603 38.0044 247.728 37.9205C247.854 37.8365 248.001 37.7917 248.152 37.7917C248.355 37.7917 248.549 37.8722 248.693 38.0155C248.836 38.1587 248.916 38.353 248.916 38.5555Z" fill="#263238"/>
<path d="M244.369 30.2741C244.791 30.2741 245.133 29.9322 245.133 29.5104C245.133 29.0885 244.791 28.7466 244.369 28.7466C243.947 28.7466 243.605 29.0885 243.605 29.5104C243.605 29.9322 243.947 30.2741 244.369 30.2741Z" fill="#263238"/>
<path d="M251.766 31.6903C251.766 31.8413 251.721 31.989 251.637 32.1146C251.553 32.2402 251.434 32.3381 251.294 32.3959C251.155 32.4537 251.001 32.4689 250.853 32.4394C250.705 32.4099 250.569 32.3372 250.462 32.2304C250.355 32.1235 250.282 31.9874 250.253 31.8393C250.223 31.6911 250.239 31.5376 250.296 31.398C250.354 31.2584 250.452 31.1392 250.578 31.0552C250.703 30.9713 250.851 30.9265 251.002 30.9265C251.205 30.9265 251.399 31.007 251.542 31.1502C251.685 31.2935 251.766 31.4877 251.766 31.6903Z" fill="#263238"/>
<path d="M254.804 44.6828L232.269 37.1395C230.395 36.5095 228.848 35.1613 227.968 33.3912C227.087 31.6211 226.946 29.5739 227.574 27.6996C228.204 25.8257 229.553 24.2787 231.323 23.3985C233.093 22.5182 235.14 22.3768 237.014 23.0054L259.55 30.5401C261.422 31.172 262.968 32.5205 263.848 34.29C264.728 36.0595 264.87 38.1056 264.244 39.98C263.614 41.8541 262.266 43.4016 260.497 44.2833C258.727 45.1649 256.68 45.3086 254.804 44.6828Z" stroke="#263238" stroke-linecap="round" stroke-linejoin="round"/>
<path d="M148.347 58.3021C162.618 58.3021 174.187 46.7333 174.187 32.4626C174.187 18.1918 162.618 6.62305 148.347 6.62305C134.077 6.62305 122.508 18.1918 122.508 32.4626C122.508 46.7333 134.077 58.3021 148.347 58.3021Z" fill="white" stroke="#263238" stroke-linecap="round" stroke-linejoin="round"/>
<path d="M163.152 33.1234V43.7132C163.152 46.3993 161.435 48.579 159.333 48.579H137.364C135.253 48.579 133.545 46.3993 133.545 43.7132V33.1234C133.545 30.4373 135.261 28.2575 137.364 28.2575H140.977V22.113H155.566V28.2575H159.307C161.435 28.2575 163.152 30.4373 163.152 33.1234Z" fill="white" stroke="#263238" stroke-linecap="round" stroke-linejoin="round"/>
<path d="M163.143 34.3419H133.545V40.9069H163.143V34.3419Z" fill="#FFDC60" stroke="#263238" stroke-miterlimit="10"/>
<path d="M142.993 14.9215H153.84C155.064 14.9215 156.239 15.4079 157.105 16.2738C157.971 17.1396 158.457 18.314 158.457 19.5385V24.3356H138.367V19.5385C138.367 18.9314 138.487 18.3304 138.719 17.7697C138.952 17.2089 139.293 16.6996 139.722 16.2708C140.152 15.8419 140.662 15.502 141.223 15.2705C141.784 15.039 142.386 14.9204 142.993 14.9215Z" fill="#FFDC60" stroke="#263238" stroke-miterlimit="10"/>
<path d="M141.877 15.2133V24.3356" stroke="#263238" stroke-linecap="round" stroke-linejoin="round"/>
<path d="M146.623 14.9215V24.3356" stroke="#263238" stroke-linecap="round" stroke-linejoin="round"/>
<path d="M151.369 14.9215V24.3356" stroke="#263238" stroke-linecap="round" stroke-linejoin="round"/>
<path d="M156.115 15.4535V24.3356" stroke="#263238" stroke-linecap="round" stroke-linejoin="round"/>
<path d="M82.1473 173.722C84.4559 159.639 74.9111 146.351 60.8283 144.043C46.7455 141.734 33.4576 151.279 31.149 165.362C28.8403 179.444 38.3851 192.732 52.4679 195.041C66.5507 197.35 79.8386 187.805 82.1473 173.722Z" fill="white" stroke="#263238" stroke-linecap="round" stroke-linejoin="round"/>
<path d="M69.7562 176.208C72.5706 170.256 68.7009 162.523 61.1129 158.934C53.5249 155.346 45.0921 157.261 42.2776 163.213C39.4632 169.164 43.3329 176.897 50.9209 180.486C58.5089 184.074 66.9418 182.159 69.7562 176.208Z" fill="#FFDC60" stroke="#263238" stroke-linecap="round" stroke-linejoin="round"/>
<path d="M70.6946 174.184C73.3348 168.601 69.3238 161.166 61.7358 157.578C54.1478 153.989 45.8562 155.606 43.216 161.189C40.5758 166.771 44.5868 174.206 52.1748 177.795C59.7629 181.383 68.0544 179.766 70.6946 174.184Z" fill="#FFDC60" stroke="#263238" stroke-linecap="round" stroke-linejoin="round"/>
<path d="M61.3368 160.047L51.957 173.237" stroke="#263238" stroke-linecap="round" stroke-linejoin="round"/>
<path d="M55.6914 157.91C56.9485 158.079 58.1868 158.367 59.3901 158.768" stroke="white" stroke-linecap="round" stroke-linejoin="round"/>
<path d="M47.359 170.328C47.359 170.328 42.5704 165.084 47.2474 160.03C48.3267 158.929 49.7323 158.207 51.2551 157.97" stroke="white" stroke-linecap="round" stroke-linejoin="round"/>
<path d="M354.329 173.737C356.638 159.654 347.093 146.366 333.01 144.058C318.927 141.749 305.639 151.294 303.331 165.376C301.022 179.459 310.567 192.747 324.65 195.056C338.732 197.364 352.02 187.82 354.329 173.737Z" fill="white" stroke="#263238" stroke-linecap="round" stroke-linejoin="round"/>
<path d="M343.658 172.147C343.461 172.43 343.263 172.722 343.058 173.005C339.187 178.369 333.223 183.372 328.803 184.359V184.29C324.512 183.329 318.737 178.566 314.867 173.366C314.652 173.082 314.446 172.791 314.249 172.507C310.524 167.17 308.954 161.566 313.099 159.249C321.526 154.546 328.803 164.629 328.803 164.629C328.803 164.629 336.098 154.623 344.508 159.317C348.541 161.566 347.16 166.938 343.658 172.147Z" fill="#FFDC60" stroke="#263238" stroke-miterlimit="10"/>
<path d="M343.66 172.147C343.462 172.43 343.265 172.722 343.059 173.005H340.931L338.493 176.223L336.837 166.68L334.263 173.168H328.178L325.063 178.36L322.66 167.848L319.562 173.331H314.868C314.653 173.048 314.447 172.756 314.25 172.473H319.064L323.003 165.496L325.423 176.095L327.715 172.276H333.722L337.155 163.488L338.991 174.095L340.493 172.113L343.66 172.147Z" fill="white"/>
<path d="M303.951 118.846C318.222 118.846 329.79 107.277 329.79 93.0065C329.79 78.7357 318.222 67.167 303.951 67.167C289.68 67.167 278.111 78.7357 278.111 93.0065C278.111 107.277 289.68 118.846 303.951 118.846Z" fill="white" stroke="#263238" stroke-linecap="round" stroke-linejoin="round"/>
<path d="M302.013 81.0608C302.262 81.6186 300.708 82.8544 298.58 83.8241C296.452 84.7939 294.461 85.1285 294.212 84.5622C293.963 83.9958 295.508 82.7686 297.645 81.7988C299.781 80.8291 301.755 80.5288 302.013 81.0608Z" fill="white" stroke="#263238" stroke-linecap="round" stroke-linejoin="round"/>
<path d="M313.64 105.03L305.908 108.771L298.974 94.4912L294.186 84.6223L301.918 80.8721L306.586 90.5007L313.64 105.03Z" fill="white" stroke="#263238" stroke-linecap="round" stroke-linejoin="round"/>
<path d="M295.619 87.5656L298.975 86.0123L295.619 87.5656Z" fill="#FFDC60"/>
<path d="M295.619 87.5656L298.975 86.0123" stroke="#263238" stroke-linecap="round" stroke-linejoin="round"/>
<path d="M297.078 90.6722L300.434 89.1189L297.078 90.6722Z" fill="#FFDC60"/>
<path d="M297.078 90.6722L300.434 89.1189" stroke="#263238" stroke-linecap="round" stroke-linejoin="round"/>
<path d="M308.869 107.338L312.86 112.573L310.869 106.368L308.869 107.338Z" fill="white" stroke="#263238" stroke-linecap="round" stroke-linejoin="round"/>
<path d="M313.641 105.03C311.831 106.842 309.521 108.073 307.007 108.565L305.909 108.771L298.975 94.4912L306.587 90.5007L313.641 105.03Z" fill="#FFDC60" stroke="#263238" stroke-miterlimit="10"/>
<path d="M300.434 97.2029L303.592 95.744" stroke="#263238" stroke-linecap="round" stroke-linejoin="round"/>
<path d="M302.166 100.524L305.264 99.108L302.166 100.524Z" fill="#FFDC60"/>
<path d="M302.166 100.524L305.264 99.108" stroke="#263238" stroke-linecap="round" stroke-linejoin="round"/>
<path d="M296.864 83.3178L294.418 77.8169L296.34 76.7271L298.975 82.2966L296.864 83.3178Z" fill="white" stroke="#263238" stroke-linecap="round" stroke-linejoin="round"/>
<path d="M301.059 76.0576L300.476 74.7704L290.178 79.3788L290.761 80.666C291.002 81.2152 293.499 80.6145 296.348 79.3444C299.197 78.0743 301.3 76.5983 301.059 76.0576Z" fill="white" stroke="#263238" stroke-linecap="round" stroke-linejoin="round"/>
<path d="M300.477 74.7704C300.237 74.2297 297.731 74.8219 294.89 76.092C292.05 77.3621 289.939 78.8381 290.179 79.3788C290.419 79.9194 292.925 79.3273 295.765 78.0486C298.606 76.7699 300.717 75.311 300.477 74.7704Z" fill="white" stroke="#263238" stroke-linecap="round" stroke-linejoin="round"/>
</svg>
